<?xml version="1.0" encoding="utf-8"?>
<!-- Generator: Adobe Illustrator 19.0.0, SVG Export Plug-In . SVG Version: 6.00 Build 0)  -->
<svg version="1.1" id="Layer_1" xmlns="http://www.w3.org/2000/svg" xmlns:xlink="http://www.w3.org/1999/xlink" x="0px" y="0px"
	 viewBox="-192.6 142.1 88 121.9" style="enable-background:new -192.6 142.1 88 121.9;" xml:space="preserve">
<style type="text/css">
	.st0{fill:#FFFFFF;}
	.st1{fill:#1568A3;}
	.st2{fill:none;}
	.st3{fill:url(#XMLID_2_);}
</style>
<g id="XMLID_757_">
	<g id="XMLID_758_">
		<path id="XMLID_759_" class="st0" d="M-113.6,180.9l-24.2-33.7c-2.9-3.2-7.9-3.5-11.2-0.7l0,0c-3.3,2.8-3.6,7.8-0.9,11.1l9,10.9
			l-20,15l0.6,68h41.6l11.6-53.5C-107.2,198.1-106.2,191.2-113.6,180.9z"/>
		<path id="XMLID_760_" class="st1" d="M-113.6,183.6c-0.8,0-1.6-0.4-2.2-1.1l-24.1-33.5c-1.9-2.1-5.2-2.2-7.3-0.3
			c-2.2,1.9-2.4,5.1-0.6,7.4l9,10.9c0.9,1.1,0.8,2.8-0.4,3.8c-1.1,0.9-2.8,0.8-3.8-0.4l-9-10.9c-3.7-4.5-3.2-11,1.2-14.8
			s11-3.4,14.9,0.9c0.1,0.1,0.1,0.1,0.2,0.2l24.2,33.7c0.9,1.2,0.6,2.9-0.6,3.7C-112.5,183.4-113.1,183.6-113.6,183.6z"/>
	</g>
	<g id="XMLID_761_">
		<line id="XMLID_762_" class="st2" x1="-160.3" y1="223.5" x2="-160.9" y2="194.5"/>
		<path id="XMLID_763_" class="st1" d="M-160.3,226.2c-1.4,0-2.6-1.2-2.7-2.6l-0.6-29c0-1.5,1.1-2.7,2.6-2.7
			c1.5-0.1,2.7,1.1,2.7,2.6l0.6,29C-157.6,224.9-158.8,226.1-160.3,226.2L-160.3,226.2z"/>
	</g>
	<g id="XMLID_764_">
		
			<linearGradient id="XMLID_2_" gradientUnits="userSpaceOnUse" x1="-235.1552" y1="367.9644" x2="-159.5552" y2="367.9644" gradientTransform="matrix(1 0 0 -1 42.5552 546.0144)">
			<stop  offset="0" style="stop-color:#42CFB3"/>
			<stop  offset="1" style="stop-color:#16A4DD"/>
		</linearGradient>
		<path id="XMLID_1109_" class="st3" d="M-191,203.8h72.4c0.9,0,1.6-0.7,1.6-1.6v-48.3c0-0.9-0.7-1.6-1.6-1.6H-191
			c-0.9,0-1.6,0.7-1.6,1.6v48.3C-192.6,203.1-191.9,203.8-191,203.8z"/>
		<g id="XMLID_1098_">
			<path id="XMLID_1105_" class="st0" d="M-173.6,176.1c3,0,5.5-2.5,5.5-5.5s-2.5-5.5-5.5-5.5s-5.5,2.5-5.5,5.5
				S-176.6,176.1-173.6,176.1L-173.6,176.1z"/>
			<path id="XMLID_40_" class="st0" d="M-166.2,178.7L-166.2,178.7c-3.5-1.3-11-1.2-14.8,0c-2,0.6-3.3,2.5-3.3,4.6v8.3
				c0,1.1,0.9,2,2,2h17.3c1.1,0,2-0.9,2-2v-8.3C-162.9,181.2-164.2,179.4-166.2,178.7L-166.2,178.7z"/>
		</g>
		<path id="XMLID_1097_" class="st0" d="M-129.7,163.6h-29.8c-1.4,0-2.5-1.1-2.5-2.5l0,0c0-1.4,1.1-2.5,2.5-2.5h29.8
			c1.4,0,2.5,1.1,2.5,2.5l0,0C-127.2,162.5-128.3,163.6-129.7,163.6z"/>
	</g>
	<g id="XMLID_765_">
		<path id="XMLID_766_" class="st1" d="M-118.5,254.7c-0.2,0-0.4,0-0.5-0.1c-1.4-0.3-2.4-1.7-2.1-3.2l10.8-52.1
			c1-4.8-0.1-9.8-3-13.7l-3.2-4.3c-0.9-1.2-0.6-2.9,0.5-3.7c1.2-0.9,2.9-0.6,3.7,0.5l3.2,4.3c3.8,5.2,5.3,11.7,4,18l-10.8,52.1
			C-116.2,253.8-117.3,254.7-118.5,254.7z"/>
	</g>
	<g id="XMLID_1089_">
		<g id="XMLID_768_">
			<line id="XMLID_769_" class="st2" x1="-118.7" y1="261.3" x2="-160.3" y2="261.3"/>
		</g>
		<g id="XMLID_770_">
			<path id="XMLID_771_" class="st1" d="M-118.7,264h-41.6c-1.5,0-2.7-1.2-2.7-2.7s1.2-2.7,2.7-2.7h41.6c1.5,0,2.7,1.2,2.7,2.7
				S-117.2,264-118.7,264z"/>
		</g>
	</g>
	<path id="XMLID_767_" class="st0" d="M-144.6,180.9c0,0-0.2-5.3,6.4-6s8.2,4.3,8.3,8.7v27.7l-14.7,1.3V180.9z"/>
	<g id="XMLID_772_">
		<path id="XMLID_773_" class="st1" d="M-128.3,254.7h-32c-1.5,0-2.7-1.2-2.7-2.7v-32.1c0-9.2,6.8-16.8,15.6-18.1v-19.4
			c0-5.5,4.5-10,10-10s10,4.5,10,10v22.3c0,1.5-1.2,2.7-2.7,2.7s-2.7-1.2-2.7-2.7v-22.3c0-2.6-2.1-4.7-4.7-4.7s-4.7,2.1-4.7,4.7
			v21.8c0,1.5-1.2,2.7-2.7,2.7c-7.1,0-12.9,5.8-12.9,12.9v29.5h29.3c1.5,0,2.7,1.2,2.7,2.7C-125.6,253.5-126.8,254.7-128.3,254.7z"
			/>
	</g>
</g>
</svg>
