<?xml version="1.0" encoding="utf-8"?>
<!-- Generator: Adobe Illustrator 19.0.0, SVG Export Plug-In . SVG Version: 6.00 Build 0)  -->
<svg version="1.1" id="Layer_1" xmlns="http://www.w3.org/2000/svg" xmlns:xlink="http://www.w3.org/1999/xlink" x="0px" y="0px"
	 viewBox="-195.3 159.1 93.3 93.3" style="enable-background:new -195.3 159.1 93.3 93.3;" xml:space="preserve">
<style type="text/css">
	.st0{fill:url(#XMLID_2_);}
	.st1{fill:#FFFFFF;}
	.st2{fill:#1568A3;}
</style>
<g id="XMLID_798_">
	
		<linearGradient id="XMLID_2_" gradientUnits="userSpaceOnUse" x1="-148.6" y1="443.6749" x2="-148.6" y2="357.8354" gradientTransform="matrix(1 0 0 -1 0 604.4)">
		<stop  offset="0" style="stop-color:#42CFB3"/>
		<stop  offset="1" style="stop-color:#16A4DD"/>
	</linearGradient>
	<circle id="XMLID_1029_" class="st0" cx="-148.6" cy="205.8" r="44.1"/>
	<g id="XMLID_799_">
		<path id="XMLID_800_" class="st1" d="M-128.9,190.4c-1.8-1.4-4.4-1.2-5.7,0.4l-18.2,21l-8.5-9.7c-1.4-1.7-4.2-2.2-5.9-0.7
			c-2,1.7-1.7,4.3-0.3,6.1l11.3,13.1c1.4,1.7,4.1,2,5.9,0.7c0.5-0.4,0.9-0.9,1.2-1.4l21-24.2C-126.8,194.1-127.1,191.7-128.9,190.4
			L-128.9,190.4z"/>
	</g>
	<g id="XMLID_803_">
		<path id="XMLID_804_" class="st2" d="M-148.6,252.4c-25.7,0-46.7-20.9-46.7-46.7c0-4.9,0.7-9.7,2.2-14.3c0.4-1.4,1.9-2.1,3.3-1.7
			c1.4,0.4,2.1,1.9,1.7,3.3c-1.3,4.1-2,8.3-2,12.7c0,22.9,18.6,41.5,41.5,41.5c3.7,0,7.4-0.5,10.9-1.4c1.4-0.4,2.8,0.4,3.2,1.8
			c0.4,1.4-0.4,2.8-1.8,3.2C-140.3,251.9-144.5,252.4-148.6,252.4z"/>
	</g>
	<g id="XMLID_805_">
		<path id="XMLID_806_" class="st2" d="M-122.4,243.8c-0.8,0-1.6-0.4-2.1-1c-0.9-1.2-0.6-2.8,0.5-3.6c10.6-7.9,16.8-20.1,16.8-33.3
			c0-22.9-18.6-41.5-41.5-41.5c-11.2,0-21.7,4.4-29.6,12.4c-1,1-2.7,1-3.7,0s-1-2.7,0-3.7c8.8-9,20.7-14,33.3-14
			c25.7,0,46.7,20.9,46.7,46.7c0,14.7-7,28.7-18.8,37.5C-121.3,243.6-121.8,243.8-122.4,243.8z"/>
	</g>
	<g id="XMLID_807_">
		<path id="XMLID_808_" class="st2" d="M-187.2,187c-0.4,0-0.9-0.1-1.3-0.3c-1.3-0.7-1.7-2.3-1-3.5c0.8-1.4,1.6-2.8,2.5-4.1
			c0.8-1.2,2.4-1.5,3.6-0.6c1.2,0.8,1.5,2.4,0.6,3.6c-0.8,1.2-1.6,2.4-2.3,3.6C-185.4,186.5-186.3,187-187.2,187z"/>
	</g>
</g>
</svg>
