<?xml version="1.0" encoding="utf-8"?>
<!-- Generator: Adobe Illustrator 19.0.0, SVG Export Plug-In . SVG Version: 6.00 Build 0)  -->
<svg version="1.1" id="Layer_1" xmlns="http://www.w3.org/2000/svg" xmlns:xlink="http://www.w3.org/1999/xlink" x="0px" y="0px"
	 viewBox="-207 227 116.7 118.1" style="enable-background:new -207 227 116.7 118.1;" xml:space="preserve">
<style type="text/css">
	.st0{fill:url(#XMLID_2_);}
	.st1{fill:#FFFFFF;}
	.st2{fill:#1568A3;}
	.st3{fill:url(#XMLID_3_);}
	.st4{fill:url(#XMLID_4_);}
</style>
<g id="XMLID_201_">
	
		<linearGradient id="XMLID_2_" gradientUnits="userSpaceOnUse" x1="-148.7238" y1="375.2317" x2="-148.7238" y2="315.1833" gradientTransform="matrix(1 0 0 -1 0 604.4)">
		<stop  offset="0" style="stop-color:#42CFB3"/>
		<stop  offset="1" style="stop-color:#16A4DD"/>
	</linearGradient>
	<path id="XMLID_399_" class="st0" d="M-95.1,290.2v-54.3c0-4.9-4-8.9-8.9-8.9h-89.5c-4.9,0-8.9,4-8.9,8.9l0.2,54.2L-95.1,290.2z"/>
	<path id="XMLID_460_" class="st1" d="M-145,245.1h-38.5c-1.1,0-1.9-0.9-1.9-1.9v-0.1c0-1.1,0.9-1.9,1.9-1.9h38.5
		c1.1,0,1.9,0.9,1.9,1.9v0.1C-143.1,244.3-144,245.1-145,245.1z"/>
	<path id="XMLID_459_" class="st1" d="M-145,255.5h-38.5c-1.1,0-1.9-0.9-1.9-1.9v-0.1c0-1.1,0.9-1.9,1.9-1.9h38.5
		c1.1,0,1.9,0.9,1.9,1.9v0.1C-143.1,254.6-144,255.5-145,255.5z"/>
	<path id="XMLID_396_" class="st2" d="M-147.7,299.5c1.1,0,2,0.9,2,2l0,0c0,1.1-0.9,2-2,2h-38.5c-1.1,0-2-0.9-2-2l0,0
		c0-1.1,0.9-2,2-2H-147.7z"/>
	<path id="XMLID_395_" class="st2" d="M-111.1,303.4h-12.7c-1.1,0-1.9-0.9-1.9-1.9v-0.1c0-1.1,0.9-1.9,1.9-1.9h12.7
		c1.1,0,1.9,0.9,1.9,1.9v0.1C-109.2,302.5-110.1,303.4-111.1,303.4z"/>
	<path id="XMLID_394_" class="st2" d="M-186.1,311.1h24.8c1.1,0,2,0.9,2,2l0,0c0,1.1-0.9,2-2,2h-24.8c-1.1,0-2-0.9-2-2l0,0
		C-188.1,311.9-187.2,311.1-186.1,311.1z"/>
	<path id="XMLID_360_" class="st2" d="M-154.2,311.1h6.5c1.1,0,2,0.9,2,2l0,0c0,1.1-0.9,2-2,2h-6.5c-1.1,0-2-0.9-2-2l0,0
		C-156.1,311.9-155.3,311.1-154.2,311.1z"/>
	<path id="XMLID_357_" class="st2" d="M-111.1,315h-12.7c-1.1,0-1.9-0.9-1.9-1.9V313c0-1.1,0.9-1.9,1.9-1.9h12.7
		c1.1,0,1.9,0.9,1.9,1.9v0.1C-109.2,314.1-110.1,315-111.1,315z"/>
	<path id="XMLID_356_" class="st2" d="M-147.7,322.6c1.1,0,2,0.9,2,2l0,0c0,1.1-0.9,2-2,2h-38.5c-1.1,0-2-0.9-2-2l0,0
		c0-1.1,0.9-2,2-2H-147.7z"/>
	<path id="XMLID_353_" class="st2" d="M-111.1,326.6h-12.7c-1.1,0-1.9-0.9-1.9-1.9v-0.1c0-1.1,0.9-1.9,1.9-1.9h12.7
		c1.1,0,1.9,0.9,1.9,1.9v0.1C-109.2,325.7-110.1,326.6-111.1,326.6z"/>
	<path id="XMLID_246_" class="st1" d="M-160.7,274.9h-22.9c-1.1,0-1.9-0.9-1.9-1.9v-0.1c0-1.1,0.9-1.9,1.9-1.9h22.9
		c1.1,0,1.9,0.9,1.9,1.9v0.1C-158.7,274-159.6,274.9-160.7,274.9z"/>
	<path id="XMLID_236_" class="st1" d="M-140.9,274.9h-8.1c-1.1,0-1.9-0.9-1.9-1.9v-0.1c0-1.1,0.9-1.9,1.9-1.9h8.1
		c1.1,0,1.9,0.9,1.9,1.9v0.1C-139,274-139.9,274.9-140.9,274.9z"/>
	<path id="XMLID_211_" class="st1" d="M-106.7,274.4H-125c-1.8,0-3.3-1.5-3.3-3.3v-25.8c0-1.8,1.5-3.3,3.3-3.3h18.3
		c1.8,0,3.3,1.5,3.3,3.3v25.8C-103.4,272.9-104.9,274.4-106.7,274.4z"/>
	<g id="XMLID_401_">
		
			<linearGradient id="XMLID_3_" gradientUnits="userSpaceOnUse" x1="-115.8738" y1="330.2735" x2="-115.8738" y2="356.2164" gradientTransform="matrix(1 0 0 -1 0 604.4)">
			<stop  offset="0" style="stop-color:#1568A1"/>
			<stop  offset="1" style="stop-color:#16A4DD"/>
		</linearGradient>
		<path id="XMLID_402_" class="st3" d="M-115.9,257.1c3,0,5.4-2.4,5.4-5.4s-2.4-5.4-5.4-5.4s-5.4,2.4-5.4,5.4
			C-121.3,254.6-118.9,257.1-115.9,257.1L-115.9,257.1z"/>
		
			<linearGradient id="XMLID_4_" gradientUnits="userSpaceOnUse" x1="-115.8238" y1="330.2735" x2="-115.8238" y2="356.2164" gradientTransform="matrix(1 0 0 -1 0 604.4)">
			<stop  offset="0" style="stop-color:#1568A1"/>
			<stop  offset="1" style="stop-color:#16A4DD"/>
		</linearGradient>
		<path id="XMLID_409_" class="st4" d="M-108.6,259.7L-108.6,259.7c-3.4-1.3-10.8-1.1-14.5,0c-2,0.6-3.3,2.5-3.3,4.6v8.2
			c0,1.1,0.9,2,2,2h17.1c1.1,0,2-0.9,2-2v-8.2C-105.4,262.1-106.7,260.3-108.6,259.7L-108.6,259.7z"/>
	</g>
	<g id="XMLID_412_">
		<path id="XMLID_413_" class="st2" d="M-94,301.2c-0.2-1.9-0.5-4.4-0.7-6.3c-0.1-1-1-1.8-2-1.8l0,0c-1.2,0-2.1,1-2,2.2
			c0.3,2.4,0.5,3.9,0.7,6.4c0.1,1,1,1.7,1.9,1.7l0,0C-94.8,303.4-93.8,302.4-94,301.2z"/>
		<path id="XMLID_414_" class="st2" d="M-91.7,322.2c-0.5-4.3-0.9-8.5-1.4-12.8c-0.1-1-1-1.8-2-1.8l0,0c-1.2,0-2.1,1-2,2.2
			c0.7,6.5,1.4,13,2.1,19.6l0.3,4.1c1.1,4.4-1.5,7.8-6,7.8c-32.1,0-64.2,0-96.4,0c-3.6,0-7-3.1-5.9-7.9l0.4-4.1
			c1.4-13.1,2.8-26.1,4.3-39.3h-4c0,0.2,0,0.3,0,0.5c-0.3,4.4-0.9,8.8-1.4,13.2c-0.9,8-1.7,16-2.6,24c-0.3,2.4-0.6,4.7-0.7,7.1
			c-0.4,5.6,4.2,10.3,10.1,10.3c16.1,0,32.1,0,48.2,0s32.2,0,48.3,0c6.2,0,10.7-4.9,10-11.1C-90.8,330.2-91.2,326.2-91.7,322.2z"/>
	</g>
</g>
</svg>
