<?xml version="1.0" encoding="utf-8"?>
<!-- Generator: Adobe Illustrator 19.0.0, SVG Export Plug-In . SVG Version: 6.00 Build 0)  -->
<svg version="1.1" id="Layer_1" xmlns="http://www.w3.org/2000/svg" xmlns:xlink="http://www.w3.org/1999/xlink" x="0px" y="0px"
	 viewBox="-211.8 161.7 126.1 79.4" style="enable-background:new -211.8 161.7 126.1 79.4;" xml:space="preserve">
<style type="text/css">
	.st0{fill:#1568A3;}
	.st1{fill:url(#XMLID_2_);}
	.st2{fill:#FFFFFF;}
	.st3{fill:url(#XMLID_3_);}
</style>
<g id="XMLID_810_">
	<g id="XMLID_811_">
		<path id="XMLID_812_" class="st0" d="M-178.4,241.1L-178.4,241.1h-16.9c-1.5,0-2.7-1.2-2.7-2.7s1.2-2.7,2.7-2.7l0,0h16.9
			c1.5,0,2.7,1.2,2.7,2.7S-176.9,241.1-178.4,241.1z"/>
	</g>
	<g id="XMLID_813_">
		<path id="XMLID_814_" class="st0" d="M-88.4,241.1L-88.4,241.1h-79.3c-1.5,0-2.7-1.2-2.7-2.7s1.2-2.7,2.7-2.7l0,0h76.6v-61.3
			c0-1.5,1.2-2.7,2.7-2.7l0,0c1.5,0,2.7,1.2,2.7,2.7v64C-85.7,239.9-86.9,241.1-88.4,241.1z"/>
	</g>
	
		<linearGradient id="XMLID_2_" gradientUnits="userSpaceOnUse" x1="10.7391" y1="957.6067" x2="-16.6549" y2="895.1023" gradientTransform="matrix(0.9604 -0.4169 -0.4405 -0.909 256.5906 1036.3539)">
		<stop  offset="0" style="stop-color:#42CFB3"/>
		<stop  offset="1" style="stop-color:#16A4DD"/>
	</linearGradient>
	<polygon id="XMLID_992_" class="st1" points="-96.8,230.3 -211.8,230.3 -211.7,161.7 -96.8,161.8 	"/>
	<path id="XMLID_991_" class="st2" d="M-119.1,225.4h-70.4c0-9.2-7.5-16.7-16.7-16.7v-25.2c9.2,0,16.7-7.5,16.7-16.7h70.4
		c0,9.2,7.5,16.7,16.7,16.7v25.2C-111.6,208.7-119.1,216.1-119.1,225.4z"/>
	
		<linearGradient id="XMLID_3_" gradientUnits="userSpaceOnUse" x1="-154.3" y1="426.8515" x2="-154.3" y2="390.3869" gradientTransform="matrix(1 0 0 -1 0 604.4)">
		<stop  offset="0" style="stop-color:#42CFB3"/>
		<stop  offset="1" style="stop-color:#16A4DD"/>
	</linearGradient>
	<circle id="XMLID_895_" class="st3" cx="-154.3" cy="196" r="18.6"/>
	<g id="XMLID_887_">
		<g id="XMLID_893_">
			<path id="XMLID_817_" class="st2" d="M-154.1,193.9c-0.1,0-0.1,0-0.2,0c-2.2,0-4.3,0-6.5,0c-0.1,0-0.2,0-0.3,0
				c-0.2,0-0.4-0.2-0.4-0.4c0-0.6,0-1.2,0-1.8c0-0.2,0.2-0.4,0.4-0.4c0.1,0,0.2,0,0.3,0c2.1,0,4.1,0,6.2,0c0.1,0,0.1,0,0.3,0
				c-0.1-0.2-0.2-0.3-0.3-0.5c-0.5-0.6-1.2-0.9-1.9-1.1c-0.7-0.2-1.5-0.2-2.3-0.2c-0.7,0-1.4,0-2,0c-0.5,0-0.7-0.2-0.7-0.7
				c0-0.6,0-1.2,0-1.9c0-0.5,0.2-0.7,0.6-0.7c4.4,0,8.7,0,13.1,0c0.5,0,0.6,0.2,0.6,0.6c0,0.5,0,0.9,0,1.4c0,0.4-0.2,0.6-0.6,0.6
				c-1.1,0-2.2,0-3.4,0c-0.1,0-0.1,0-0.3,0c0,0.1,0.1,0.1,0.1,0.2c0.4,0.6,0.7,1.2,0.9,1.9c0,0.2,0.1,0.2,0.3,0.2c0.8,0,1.6,0,2.4,0
				c0.5,0,0.6,0.2,0.7,0.6c0,0.5,0,0.9,0,1.4s-0.2,0.6-0.6,0.6c-0.8,0-1.6,0-2.4,0c-0.1,0-0.2,0-0.2,0.2c-0.3,1.4-0.9,2.6-2,3.6
				c-1,0.8-2.1,1.3-3.3,1.6c-0.3,0.1-0.7,0.1-1.1,0.2l0.1,0.1c1.7,1.9,3.4,3.9,5.1,5.8c0.7,0.8,1.4,1.7,2.1,2.6
				c0.1,0.2,0.2,0.4,0.1,0.6c-0.1,0.2-0.3,0.3-0.5,0.3c-1,0-2,0-3,0c-0.2,0-0.4-0.1-0.5-0.3c-1.4-1.7-2.9-3.4-4.3-5.1
				c-1.1-1.3-2.3-2.6-3.5-3.9c-0.2-0.2-0.3-0.4-0.3-0.7c0-0.6,0-1.1,0-1.7c0-0.4,0.2-0.6,0.6-0.6c0.9,0,1.8,0,2.6,0
				c0.9-0.1,1.9-0.3,2.7-0.8C-154.8,195.2-154.4,194.6-154.1,193.9C-154.2,194-154.1,194-154.1,193.9L-154.1,193.9z"/>
		</g>
	</g>
</g>
</svg>
