<?xml version="1.0" encoding="utf-8"?>
<!-- Generator: Adobe Illustrator 19.0.0, SVG Export Plug-In . SVG Version: 6.00 Build 0)  -->
<svg version="1.1" id="Layer_1" xmlns="http://www.w3.org/2000/svg" xmlns:xlink="http://www.w3.org/1999/xlink" x="0px" y="0px"
	 viewBox="0 0 598 497" style="enable-background:new 0 0 598 497;" xml:space="preserve">
<style type="text/css">
	.st0{fill:url(#XMLID_28_);}
	.st1{fill:#DDDDDD;}
</style>
<g id="XMLID_106_">
	<linearGradient id="XMLID_28_" gradientUnits="userSpaceOnUse" x1="300.7837" y1="212.9119" x2="300.7837" y2="434.8497">
		<stop  offset="0" style="stop-color:#42D1B5"/>
		<stop  offset="1" style="stop-color:#16A6DF"/>
	</linearGradient>
	<path id="XMLID_109_" class="st0" d="M546.3,411.9v-256c0-17.6-20.8-26.8-33.8-15.1L321.2,313.3c-12.5,11.3-31.1,12.3-44.8,2.5
		l-48-34.3c-13-9.3-30.8-8-42.4,3.1l-124.6,120c-13.1,12.7-4.2,34.9,14.1,34.9h443.2C534,439.5,546.3,427.2,546.3,411.9z"/>
	<g id="XMLID_107_">
		<path id="XMLID_108_" class="st1" d="M582.6,497H15.4C6.9,497,0,490.2,0,481.7V15.4C0,6.9,6.9,0,15.4,0s15.4,6.9,15.4,15.4v451
			h551.9c8.5,0,15.4,6.9,15.4,15.4S591.1,497,582.6,497z"/>
	</g>
</g>
</svg>
