<?xml version="1.0" encoding="utf-8"?>
<!-- Generator: Adobe Illustrator 19.0.0, SVG Export Plug-In . SVG Version: 6.00 Build 0)  -->
<svg version="1.1" id="Layer_1" xmlns="http://www.w3.org/2000/svg" xmlns:xlink="http://www.w3.org/1999/xlink" x="0px" y="0px"
	 viewBox="0 0 316 497" style="enable-background:new 0 0 316 497;" xml:space="preserve">
<style type="text/css">
	.st0{fill:#DDDDDD;}
	.st1{fill:url(#XMLID_43_);}
	.st2{fill:#16A6DF;}
</style>
<g id="XMLID_124_">
	<g id="XMLID_128_">
		<g id="XMLID_129_">
			<path id="XMLID_130_" class="st0" d="M288.4,497H27.6C12.4,497,0,484.6,0,469.4V27.6C0,12.4,12.4,0,27.6,0h260.7
				C303.6,0,316,12.4,316,27.6v441.7C316,484.6,303.6,497,288.4,497z M27.6,20.4c-4,0-7.2,3.2-7.2,7.2v441.8c0,4,3.2,7.2,7.2,7.2
				h260.7c4,0,7.2-3.2,7.2-7.2V27.6c0-4-3.2-7.2-7.2-7.2H27.6z"/>
		</g>
	</g>
	<linearGradient id="XMLID_43_" gradientUnits="userSpaceOnUse" x1="158.0072" y1="43.517" x2="158.0072" y2="425.0762">
		<stop  offset="0" style="stop-color:#42D1B5"/>
		<stop  offset="1" style="stop-color:#16A6DF"/>
	</linearGradient>
	<path id="XMLID_127_" class="st1" d="M273.7,425.7H42.3c-1.7,0-3.1-1.4-3.1-3.1V43.8c0-1.7,1.4-3.1,3.1-3.1h231.4
		c1.7,0,3.1,1.4,3.1,3.1v378.8C276.8,424.3,275.4,425.7,273.7,425.7z"/>
	<g id="XMLID_125_">
		<path id="XMLID_126_" class="st2" d="M190.5,460.8h-47.4c-5.6,0-10.2-4.6-10.2-10.2c0-5.6,4.6-10.2,10.2-10.2h47.4
			c5.6,0,10.2,4.6,10.2,10.2C200.7,456.3,196.2,460.8,190.5,460.8z"/>
	</g>
</g>
</svg>
