<?xml version="1.0" encoding="utf-8"?>
<!-- Generator: Adobe Illustrator 19.0.0, SVG Export Plug-In . SVG Version: 6.00 Build 0)  -->
<svg version="1.1" id="Layer_1" xmlns="http://www.w3.org/2000/svg" xmlns:xlink="http://www.w3.org/1999/xlink" x="0px" y="0px"
	 viewBox="0 0 316.2 422.6" style="enable-background:new 0 0 316.2 422.6;" xml:space="preserve">
<style type="text/css">
	.st0{fill:url(#XMLID_67_);}
	.st1{fill:#DDDDDD;}
	.st2{fill:#FFFFFF;}
</style>
<g id="XMLID_35_">
	<linearGradient id="XMLID_67_" gradientUnits="userSpaceOnUse" x1="158.1127" y1="42.6655" x2="158.1127" y2="386.6113">
		<stop  offset="0" style="stop-color:#42D1B5"/>
		<stop  offset="1" style="stop-color:#16A6DF"/>
	</linearGradient>
	<path id="XMLID_76_" class="st0" d="M259.9,379.5H56.3c-7.5,0-13.6-6.1-13.6-13.6V57.7c0-7.5,6.1-13.6,13.6-13.6h160.5l56.6,68
		v253.8C273.5,373.4,267.4,379.5,259.9,379.5z"/>
	<g id="XMLID_50_">
		<path id="XMLID_57_" class="st1" d="M279.4,422.6H36.8C16.5,422.6,0,406.1,0,385.8v-349C0,16.5,16.5,0,36.8,0h193.5
			c2.9,0,5.7,1.3,7.5,3.5l76.1,92c1.4,1.8,2.2,4,2.2,6.2v284C316.2,406.1,299.7,422.6,279.4,422.6z M36.8,19.6
			c-9.5,0-17.3,7.8-17.3,17.3v349c0,9.5,7.8,17.3,17.3,17.3h242.5c9.5,0,17.3-7.8,17.3-17.3V105.3l-71-85.8H36.8z"/>
	</g>
	<path id="XMLID_49_" class="st1" d="M216.9,44.1v45.3c0,12.5,10.1,22.7,22.7,22.7h34L216.9,44.1z"/>
	<g id="XMLID_47_">
		<path id="XMLID_48_" class="st2" d="M240.1,164.9H75c-5.6,0-10.2-4.6-10.2-10.2s4.6-10.2,10.2-10.2h165.1
			c5.6,0,10.2,4.6,10.2,10.2S245.7,164.9,240.1,164.9z"/>
	</g>
	<g id="XMLID_45_">
		<path id="XMLID_46_" class="st2" d="M240.1,220.4H75c-5.6,0-10.2-4.6-10.2-10.2S69.4,200,75,200h165.1c5.6,0,10.2,4.6,10.2,10.2
			S245.7,220.4,240.1,220.4z"/>
	</g>
	<g id="XMLID_43_">
		<path id="XMLID_44_" class="st2" d="M240.1,275.9H75c-5.6,0-10.2-4.6-10.2-10.2c0-5.6,4.6-10.2,10.2-10.2h165.1
			c5.6,0,10.2,4.6,10.2,10.2C250.3,271.3,245.7,275.9,240.1,275.9z"/>
	</g>
	<g id="XMLID_37_">
		<path id="XMLID_42_" class="st2" d="M132.5,331.4H75c-5.6,0-10.2-4.6-10.2-10.2c0-5.6,4.6-10.2,10.2-10.2h57.5
			c5.6,0,10.2,4.6,10.2,10.2C142.7,326.8,138.1,331.4,132.5,331.4z"/>
	</g>
</g>
</svg>
