<?xml version="1.0" encoding="utf-8"?>
<!-- Generator: Adobe Illustrator 19.0.0, SVG Export Plug-In . SVG Version: 6.00 Build 0)  -->
<svg version="1.1" id="Layer_1" xmlns="http://www.w3.org/2000/svg" xmlns:xlink="http://www.w3.org/1999/xlink" x="0px" y="0px"
	 viewBox="0 0 250.7 369.8" style="enable-background:new 0 0 250.7 369.8;" xml:space="preserve">
<style type="text/css">
	.st0{fill:#FFFFFF;}
	.st1{fill:#1568A3;}
	.st2{fill:url(#XMLID_55_);}
</style>
<g id="XMLID_754_">
	<path id="XMLID_755_" class="st0" d="M236.9,369.8H13.8c-7.6,0-13.8-6.2-13.8-13.8V13.8C0,6.2,6.2,0,13.8,0h223.1
		c7.6,0,13.8,6.2,13.8,13.8v342.1C250.7,363.6,244.6,369.8,236.9,369.8z"/>
</g>
<g id="XMLID_757_">
	<g id="XMLID_758_">
		<path id="XMLID_759_" class="st0" d="M160.4,64.7L136.2,31c-2.9-3.2-7.9-3.5-11.2-0.7l0,0c-3.3,2.8-3.6,7.8-0.9,11.1l9,10.9
			l-20,15l0.6,68h41.6l11.6-53.5C166.8,81.9,167.8,75,160.4,64.7z"/>
		<path id="XMLID_760_" class="st1" d="M160.4,67.4c-0.8,0-1.6-0.4-2.2-1.1l-24.1-33.5c-1.9-2.1-5.2-2.2-7.3-0.3
			c-2.2,1.9-2.4,5.1-0.6,7.4l9,10.9c0.9,1.1,0.8,2.8-0.4,3.8c-1.1,0.9-2.8,0.8-3.8-0.4l-9-10.9c-3.7-4.5-3.2-11,1.2-14.8
			c4.4-3.8,11-3.4,14.9,0.9c0.1,0.1,0.1,0.1,0.2,0.2l24.2,33.7c0.9,1.2,0.6,2.9-0.6,3.7C161.5,67.2,160.9,67.4,160.4,67.4z"/>
	</g>
	<g id="XMLID_761_">
		<line id="XMLID_762_" class="st0" x1="113.7" y1="107.3" x2="113.1" y2="78.3"/>
		<path id="XMLID_763_" class="st1" d="M113.7,110c-1.4,0-2.6-1.2-2.7-2.6l-0.6-29c0-1.5,1.1-2.7,2.6-2.7c1.5-0.1,2.7,1.1,2.7,2.6
			l0.6,29C116.4,108.7,115.2,109.9,113.7,110C113.7,110,113.7,110,113.7,110z"/>
	</g>
	<g id="XMLID_764_">
		
			<linearGradient id="XMLID_55_" gradientUnits="userSpaceOnUse" x1="38.8291" y1="120.1919" x2="114.4635" y2="120.1919" gradientTransform="matrix(1 0 0 1 42.5552 -58.3856)">
			<stop  offset="0" style="stop-color:#42CFB3"/>
			<stop  offset="1" style="stop-color:#16A4DD"/>
		</linearGradient>
		<path id="XMLID_1109_" class="st2" d="M83,87.6h72.4c0.9,0,1.6-0.7,1.6-1.6V37.7c0-0.9-0.7-1.6-1.6-1.6H83c-0.9,0-1.6,0.7-1.6,1.6
			v48.3C81.4,86.9,82.1,87.6,83,87.6z"/>
		<g id="XMLID_1098_">
			<path id="XMLID_1105_" class="st0" d="M100.4,59.9c3,0,5.5-2.5,5.5-5.5c0-3-2.5-5.5-5.5-5.5c-3,0-5.5,2.5-5.5,5.5
				C94.9,57.4,97.4,59.9,100.4,59.9L100.4,59.9z M100.4,59.9"/>
			<path id="XMLID_40_" class="st0" d="M107.8,62.5C107.8,62.5,107.8,62.5,107.8,62.5c-3.5-1.3-11-1.2-14.8,0
				c-2,0.6-3.3,2.5-3.3,4.6v8.3c0,1.1,0.9,2,2,2h17.3c1.1,0,2-0.9,2-2v-8.3C111.1,65,109.8,63.2,107.8,62.5L107.8,62.5z"/>
		</g>
		<path id="XMLID_1097_" class="st0" d="M144.3,47.4h-29.8c-1.4,0-2.5-1.1-2.5-2.5v0c0-1.4,1.1-2.5,2.5-2.5h29.8
			c1.4,0,2.5,1.1,2.5,2.5v0C146.8,46.3,145.7,47.4,144.3,47.4z"/>
	</g>
	<g id="XMLID_765_">
		<path id="XMLID_766_" class="st1" d="M155.5,138.5c-0.2,0-0.4,0-0.5-0.1c-1.4-0.3-2.4-1.7-2.1-3.2l10.8-52.1c1-4.8-0.1-9.8-3-13.7
			l-3.2-4.3c-0.9-1.2-0.6-2.9,0.5-3.7c1.2-0.9,2.9-0.6,3.7,0.5l3.2,4.3c3.8,5.2,5.3,11.7,4,18l-10.8,52.1
			C157.8,137.6,156.7,138.5,155.5,138.5z"/>
	</g>
	<g id="XMLID_1089_">
		<g id="XMLID_768_">
			<line id="XMLID_769_" class="st0" x1="155.3" y1="145.1" x2="113.7" y2="145.1"/>
		</g>
		<g id="XMLID_770_">
			<path id="XMLID_771_" class="st1" d="M155.3,147.8h-41.6c-1.5,0-2.7-1.2-2.7-2.7c0-1.5,1.2-2.7,2.7-2.7h41.6
				c1.5,0,2.7,1.2,2.7,2.7C158,146.6,156.8,147.8,155.3,147.8z"/>
		</g>
	</g>
	<path id="XMLID_767_" class="st0" d="M129.4,64.7c0,0-0.2-5.3,6.4-6c6.6-0.7,8.2,4.3,8.3,8.7v27.7l-14.7,1.3L129.4,64.7z"/>
	<g id="XMLID_772_">
		<path id="XMLID_773_" class="st1" d="M145.7,138.5h-32c-1.5,0-2.7-1.2-2.7-2.7v-32.1c0-9.2,6.8-16.8,15.6-18.1V66.2
			c0-5.5,4.5-10,10-10s10,4.5,10,10v22.3c0,1.5-1.2,2.7-2.7,2.7s-2.7-1.2-2.7-2.7V66.2c0-2.6-2.1-4.7-4.7-4.7
			c-2.6,0-4.7,2.1-4.7,4.7V88c0,1.5-1.2,2.7-2.7,2.7c-7.1,0-12.9,5.8-12.9,12.9v29.5h29.3c1.5,0,2.7,1.2,2.7,2.7
			C148.4,137.3,147.2,138.5,145.7,138.5z"/>
	</g>
</g>
</svg>
