<?xml version="1.0" encoding="utf-8"?>
<!-- Generator: Adobe Illustrator 19.0.0, SVG Export Plug-In . SVG Version: 6.00 Build 0)  -->
<svg version="1.1" id="Layer_1" xmlns="http://www.w3.org/2000/svg" xmlns:xlink="http://www.w3.org/1999/xlink" x="0px" y="0px"
	 viewBox="-274 116.2 250.7 369.8" style="enable-background:new -274 116.2 250.7 369.8;" xml:space="preserve">
<style type="text/css">
	.st0{fill:#FFFFFF;}
	.st1{fill:url(#XMLID_2_);}
	.st2{fill:#1568A3;}
	.st3{fill:url(#XMLID_3_);}
	.st4{fill:url(#XMLID_4_);}
</style>
<path id="XMLID_1084_" class="st0" d="M-39.1,486h-219.1c-8.7,0-15.8-7.1-15.8-15.8V132c0-8.7,7.1-15.8,15.8-15.8h219.1
	c8.7,0,15.8,7.1,15.8,15.8v338.1C-23.2,478.9-30.3,486-39.1,486z"/>
<g id="XMLID_201_">
	<linearGradient id="XMLID_2_" gradientUnits="userSpaceOnUse" x1="-151.7451" y1="157.8183" x2="-151.7451" y2="217.8667">
		<stop  offset="0" style="stop-color:#42CFB3"/>
		<stop  offset="1" style="stop-color:#16A4DD"/>
	</linearGradient>
	<path id="XMLID_399_" class="st1" d="M-98.1,218.8v-54.3c0-4.9-4-8.9-8.9-8.9h-89.5c-4.9,0-8.9,4-8.9,8.9l0.2,54.2L-98.1,218.8z"/>
	<path id="XMLID_460_" class="st0" d="M-148,173.7h-38.5c-1.1,0-1.9-0.9-1.9-1.9v-0.1c0-1.1,0.9-1.9,1.9-1.9h38.5
		c1.1,0,1.9,0.9,1.9,1.9v0.1C-146.1,172.9-147,173.7-148,173.7z"/>
	<path id="XMLID_459_" class="st0" d="M-148,184.1h-38.5c-1.1,0-1.9-0.9-1.9-1.9v-0.1c0-1.1,0.9-1.9,1.9-1.9h38.5
		c1.1,0,1.9,0.9,1.9,1.9v0.1C-146.1,183.2-147,184.1-148,184.1z"/>
	<path id="XMLID_396_" class="st2" d="M-150.7,228.1c1.1,0,2,0.9,2,2v0c0,1.1-0.9,2-2,2h-38.5c-1.1,0-2-0.9-2-2v0c0-1.1,0.9-2,2-2
		H-150.7z"/>
	<path id="XMLID_395_" class="st2" d="M-114.1,232h-12.7c-1.1,0-1.9-0.9-1.9-1.9V230c0-1.1,0.9-1.9,1.9-1.9h12.7
		c1.1,0,1.9,0.9,1.9,1.9v0.1C-112.2,231.1-113.1,232-114.1,232z"/>
	<path id="XMLID_394_" class="st2" d="M-189.1,239.7h24.8c1.1,0,2,0.9,2,2l0,0c0,1.1-0.9,2-2,2h-24.8c-1.1,0-2-0.9-2-2l0,0
		C-191.1,240.5-190.2,239.7-189.1,239.7z"/>
	<path id="XMLID_360_" class="st2" d="M-157.2,239.7h6.5c1.1,0,2,0.9,2,2l0,0c0,1.1-0.9,2-2,2h-6.5c-1.1,0-2-0.9-2-2l0,0
		C-159.1,240.5-158.3,239.7-157.2,239.7z"/>
	<path id="XMLID_357_" class="st2" d="M-114.1,243.6h-12.7c-1.1,0-1.9-0.9-1.9-1.9v-0.1c0-1.1,0.9-1.9,1.9-1.9h12.7
		c1.1,0,1.9,0.9,1.9,1.9v0.1C-112.2,242.7-113.1,243.6-114.1,243.6z"/>
	<path id="XMLID_356_" class="st2" d="M-150.7,251.2c1.1,0,2,0.9,2,2v0c0,1.1-0.9,2-2,2h-38.5c-1.1,0-2-0.9-2-2v0c0-1.1,0.9-2,2-2
		H-150.7z"/>
	<path id="XMLID_353_" class="st2" d="M-114.1,255.2h-12.7c-1.1,0-1.9-0.9-1.9-1.9v-0.1c0-1.1,0.9-1.9,1.9-1.9h12.7
		c1.1,0,1.9,0.9,1.9,1.9v0.1C-112.2,254.3-113.1,255.2-114.1,255.2z"/>
	<path id="XMLID_246_" class="st0" d="M-163.7,203.5h-22.9c-1.1,0-1.9-0.9-1.9-1.9v-0.1c0-1.1,0.9-1.9,1.9-1.9h22.9
		c1.1,0,1.9,0.9,1.9,1.9v0.1C-161.7,202.6-162.6,203.5-163.7,203.5z"/>
	<path id="XMLID_236_" class="st0" d="M-143.9,203.5h-8.1c-1.1,0-1.9-0.9-1.9-1.9v-0.1c0-1.1,0.9-1.9,1.9-1.9h8.1
		c1.1,0,1.9,0.9,1.9,1.9v0.1C-142,202.6-142.9,203.5-143.9,203.5z"/>
	<path id="XMLID_211_" class="st0" d="M-109.7,203h-18.3c-1.8,0-3.3-1.5-3.3-3.3v-25.8c0-1.8,1.5-3.3,3.3-3.3h18.3
		c1.8,0,3.3,1.5,3.3,3.3v25.8C-106.4,201.5-107.9,203-109.7,203z"/>
	<g id="XMLID_401_">
		<linearGradient id="XMLID_3_" gradientUnits="userSpaceOnUse" x1="-118.8983" y1="202.7765" x2="-118.8983" y2="176.8336">
			<stop  offset="0" style="stop-color:#1568A1"/>
			<stop  offset="1" style="stop-color:#16A4DD"/>
		</linearGradient>
		<path id="XMLID_402_" class="st3" d="M-118.9,185.7c3,0,5.4-2.4,5.4-5.4c0-3-2.4-5.4-5.4-5.4c-3,0-5.4,2.4-5.4,5.4
			C-124.3,183.2-121.9,185.7-118.9,185.7L-118.9,185.7z M-118.9,185.7"/>
		<linearGradient id="XMLID_4_" gradientUnits="userSpaceOnUse" x1="-118.8983" y1="202.7765" x2="-118.8983" y2="176.8336">
			<stop  offset="0" style="stop-color:#1568A1"/>
			<stop  offset="1" style="stop-color:#16A4DD"/>
		</linearGradient>
		<path id="XMLID_409_" class="st4" d="M-111.6,188.3C-111.6,188.3-111.6,188.3-111.6,188.3c-3.4-1.3-10.8-1.1-14.5,0
			c-2,0.6-3.3,2.5-3.3,4.6v8.2c0,1.1,0.9,2,2,2h17.1c1.1,0,2-0.9,2-2v-8.2C-108.4,190.7-109.7,188.9-111.6,188.3L-111.6,188.3z"/>
	</g>
	<g id="XMLID_412_">
		<path id="XMLID_413_" class="st2" d="M-97,229.8c-0.2-1.9-0.5-4.4-0.7-6.3c-0.1-1-1-1.8-2-1.8h0c-1.2,0-2.1,1-2,2.2
			c0.3,2.4,0.5,3.9,0.7,6.4c0.1,1,1,1.7,1.9,1.7h0C-97.8,232-96.8,231-97,229.8z"/>
		<path id="XMLID_414_" class="st2" d="M-94.7,250.8c-0.5-4.3-0.9-8.5-1.4-12.8c-0.1-1-1-1.8-2-1.8h0c-1.2,0-2.1,1-2,2.2
			c0.7,6.5,1.4,13,2.1,19.6l0.3,4.1c1.1,4.4-1.5,7.8-6,7.8c-32.1,0-64.2,0-96.4,0c-3.6,0-7-3.1-5.9-7.9l0.4-4.1
			c1.4-13.1,2.8-26.1,4.3-39.3h-4c0,0.2,0,0.3,0,0.5c-0.3,4.4-0.9,8.8-1.4,13.2c-0.9,8-1.7,16-2.6,24c-0.3,2.4-0.6,4.7-0.7,7.1
			c-0.4,5.6,4.2,10.3,10.1,10.3c16.1,0,32.1,0,48.2,0c16.1,0,32.2,0,48.3,0c6.2,0,10.7-4.9,10-11.1
			C-93.8,258.8-94.2,254.8-94.7,250.8z"/>
	</g>
</g>
</svg>
