<?xml version="1.0" encoding="utf-8"?>
<!-- Generator: Adobe Illustrator 19.0.0, SVG Export Plug-In . SVG Version: 6.00 Build 0)  -->
<svg version="1.1" id="Layer_1" xmlns="http://www.w3.org/2000/svg" xmlns:xlink="http://www.w3.org/1999/xlink" x="0px" y="0px"
	 viewBox="0 0 250.7 369.8" style="enable-background:new 0 0 250.7 369.8;" xml:space="preserve">
<style type="text/css">
	.st0{fill:#FFFFFF;}
	.st1{fill:url(#XMLID_54_);}
	.st2{fill:#1568A3;}
</style>
<path id="XMLID_1031_" class="st0" d="M236.9,370.6H13.8c-7.6,0-13.8-6.2-13.8-13.8V14.6C0,7,6.2,0.8,13.8,0.8h223.1
	c7.6,0,13.8,6.2,13.8,13.8v342.1C250.7,364.4,244.6,370.6,236.9,370.6z"/>
<g id="XMLID_798_">
	<linearGradient id="XMLID_54_" gradientUnits="userSpaceOnUse" x1="125.3668" y1="44.5251" x2="125.3668" y2="130.3646">
		<stop  offset="0" style="stop-color:#42CFB3"/>
		<stop  offset="1" style="stop-color:#16A4DD"/>
	</linearGradient>
	<circle id="XMLID_1029_" class="st1" cx="125.4" cy="89.6" r="44.1"/>
	<g id="XMLID_799_">
		<path id="XMLID_800_" class="st0" d="M145.1,74.2c-1.8-1.4-4.4-1.2-5.7,0.4l-18.2,21l-8.5-9.7c-1.4-1.7-4.2-2.2-5.9-0.7
			c-2,1.7-1.7,4.3-0.3,6.1l11.3,13.1c1.4,1.7,4.1,2,5.9,0.7c0.5-0.4,0.9-0.9,1.2-1.4l21-24.2C147.2,77.9,146.9,75.5,145.1,74.2
			L145.1,74.2z M145.1,74.2"/>
	</g>
	<g id="XMLID_803_">
		<path id="XMLID_804_" class="st2" d="M125.4,136.2c-25.7,0-46.7-20.9-46.7-46.7c0-4.9,0.7-9.7,2.2-14.3c0.4-1.4,1.9-2.1,3.3-1.7
			c1.4,0.4,2.1,1.9,1.7,3.3c-1.3,4.1-2,8.3-2,12.7c0,22.9,18.6,41.5,41.5,41.5c3.7,0,7.4-0.5,10.9-1.4c1.4-0.4,2.8,0.4,3.2,1.8
			c0.4,1.4-0.4,2.8-1.8,3.2C133.7,135.7,129.5,136.2,125.4,136.2z"/>
	</g>
	<g id="XMLID_805_">
		<path id="XMLID_806_" class="st2" d="M151.6,127.6c-0.8,0-1.6-0.4-2.1-1c-0.9-1.2-0.6-2.8,0.5-3.6c10.6-7.9,16.8-20.1,16.8-33.3
			c0-22.9-18.6-41.5-41.5-41.5c-11.2,0-21.7,4.4-29.6,12.4c-1,1-2.7,1-3.7,0c-1-1-1-2.7,0-3.7c8.8-9,20.7-14,33.3-14
			c25.7,0,46.7,20.9,46.7,46.7c0,14.7-7,28.7-18.8,37.5C152.7,127.4,152.2,127.6,151.6,127.6z"/>
	</g>
	<g id="XMLID_807_">
		<path id="XMLID_808_" class="st2" d="M86.8,70.8c-0.4,0-0.9-0.1-1.3-0.3c-1.3-0.7-1.7-2.3-1-3.5c0.8-1.4,1.6-2.8,2.5-4.1
			c0.8-1.2,2.4-1.5,3.6-0.6c1.2,0.8,1.5,2.4,0.6,3.6c-0.8,1.2-1.6,2.4-2.3,3.6C88.6,70.3,87.7,70.8,86.8,70.8z"/>
	</g>
</g>
</svg>
