<?xml version="1.0" encoding="utf-8"?>
<!-- Generator: Adobe Illustrator 19.0.0, SVG Export Plug-In . SVG Version: 6.00 Build 0)  -->
<svg version="1.1" id="Layer_1" xmlns="http://www.w3.org/2000/svg" xmlns:xlink="http://www.w3.org/1999/xlink" x="0px" y="0px"
	 viewBox="0 0 250.7 369.8" style="enable-background:new 0 0 250.7 369.8;" xml:space="preserve">
<style type="text/css">
	.st0{fill:#FFFFFF;}
	.st1{fill:#1568A3;}
	.st2{fill:url(#XMLID_54_);}
	.st3{fill:url(#XMLID_55_);}
</style>
<path id="XMLID_1008_" class="st0" d="M236.8,369.8H13.7c-7.6,0-13.8-6.2-13.8-13.8V13.8C-0.1,6.2,6.1,0,13.7,0h223.1
	c7.6,0,13.8,6.2,13.8,13.8v342.1C250.6,363.6,244.5,369.8,236.8,369.8z"/>
<g id="XMLID_810_">
	<g id="XMLID_811_">
		<path id="XMLID_812_" class="st1" d="M95.6,124.9L95.6,124.9l-16.9,0c-1.5,0-2.7-1.2-2.7-2.7c0-1.5,1.2-2.7,2.7-2.7c0,0,0,0,0,0
			l16.9,0c1.5,0,2.7,1.2,2.7,2.7S97.1,124.9,95.6,124.9z"/>
	</g>
	<g id="XMLID_813_">
		<path id="XMLID_814_" class="st1" d="M185.6,124.9L185.6,124.9l-79.3,0c-1.5,0-2.7-1.2-2.7-2.7s1.2-2.7,2.7-2.7h0l76.6,0l0-61.3
			c0-1.5,1.2-2.7,2.7-2.7c0,0,0,0,0,0c1.5,0,2.7,1.2,2.7,2.7l0,64C188.3,123.7,187.1,124.9,185.6,124.9z"/>
	</g>
	
		<linearGradient id="XMLID_54_" gradientUnits="userSpaceOnUse" x1="370.5819" y1="-567.1155" x2="343.188" y2="-504.6111" gradientTransform="matrix(0.9604 -0.4169 0.4405 0.909 13.0223 715.2153)">
		<stop  offset="0" style="stop-color:#42CFB3"/>
		<stop  offset="1" style="stop-color:#16A4DD"/>
	</linearGradient>
	<polygon id="XMLID_992_" class="st2" points="177.2,114.1 62.2,114.1 62.3,45.5 177.2,45.6 	"/>
	<path id="XMLID_991_" class="st0" d="M154.9,109.2l-70.4,0c0-9.2-7.5-16.7-16.7-16.7l0-25.2c9.2,0,16.7-7.5,16.7-16.7l70.4,0
		c0,9.2,7.5,16.7,16.7,16.7l0,25.2C162.4,92.5,154.9,99.9,154.9,109.2z"/>
	<linearGradient id="XMLID_55_" gradientUnits="userSpaceOnUse" x1="119.7264" y1="61.3485" x2="119.7264" y2="97.8131">
		<stop  offset="0" style="stop-color:#42CFB3"/>
		<stop  offset="1" style="stop-color:#16A4DD"/>
	</linearGradient>
	<circle id="XMLID_895_" class="st3" cx="119.7" cy="79.8" r="18.6"/>
	<g id="XMLID_887_">
		<g id="XMLID_893_">
			<path id="XMLID_817_" class="st0" d="M119.9,77.7c-0.1,0-0.1,0-0.2,0c-2.2,0-4.3,0-6.5,0c-0.1,0-0.2,0-0.3,0
				c-0.2,0-0.4-0.2-0.4-0.4c0-0.6,0-1.2,0-1.8c0-0.2,0.2-0.4,0.4-0.4c0.1,0,0.2,0,0.3,0c2.1,0,4.1,0,6.2,0c0.1,0,0.1,0,0.3,0
				c-0.1-0.2-0.2-0.3-0.3-0.5c-0.5-0.6-1.2-0.9-1.9-1.1c-0.7-0.2-1.5-0.2-2.3-0.2c-0.7,0-1.4,0-2,0c-0.5,0-0.7-0.2-0.7-0.7
				c0-0.6,0-1.2,0-1.9c0-0.5,0.2-0.7,0.6-0.7c4.4,0,8.7,0,13.1,0c0.5,0,0.6,0.2,0.6,0.6c0,0.5,0,0.9,0,1.4c0,0.4-0.2,0.6-0.6,0.6
				c-1.1,0-2.2,0-3.4,0c-0.1,0-0.1,0-0.3,0c0,0.1,0.1,0.1,0.1,0.2c0.4,0.6,0.7,1.2,0.9,1.9c0,0.2,0.1,0.2,0.3,0.2c0.8,0,1.6,0,2.4,0
				c0.5,0,0.6,0.2,0.7,0.6c0,0.5,0,0.9,0,1.4c0,0.5-0.2,0.6-0.6,0.6c-0.8,0-1.6,0-2.4,0c-0.1,0-0.2,0-0.2,0.2
				c-0.3,1.4-0.9,2.6-2,3.6c-1,0.8-2.1,1.3-3.3,1.6c-0.3,0.1-0.7,0.1-1.1,0.2c0,0,0.1,0.1,0.1,0.1c1.7,1.9,3.4,3.9,5.1,5.8
				c0.7,0.8,1.4,1.7,2.1,2.6c0.1,0.2,0.2,0.4,0.1,0.6c-0.1,0.2-0.3,0.3-0.5,0.3c-1,0-2,0-3,0c-0.2,0-0.4-0.1-0.5-0.3
				c-1.4-1.7-2.9-3.4-4.3-5.1c-1.1-1.3-2.3-2.6-3.5-3.9c-0.2-0.2-0.3-0.4-0.3-0.7c0-0.6,0-1.1,0-1.7c0-0.4,0.2-0.6,0.6-0.6
				c0.9,0,1.8,0,2.6,0c0.9-0.1,1.9-0.3,2.7-0.8c0.7-0.4,1.1-1,1.4-1.7C119.8,77.8,119.9,77.8,119.9,77.7
				C119.9,77.7,119.9,77.7,119.9,77.7z"/>
		</g>
	</g>
</g>
</svg>
