<?xml version="1.0" encoding="utf-8"?>
<!-- Generator: Adobe Illustrator 19.0.0, SVG Export Plug-In . SVG Version: 6.00 Build 0)  -->
<svg version="1.1" id="Layer_1" xmlns="http://www.w3.org/2000/svg" xmlns:xlink="http://www.w3.org/1999/xlink" x="0px" y="0px"
	 viewBox="0 0 216 20.9" style="enable-background:new 0 0 216 20.9;" xml:space="preserve">
<style type="text/css">
	.st0{fill:#FFFFFF;}
</style>
<g id="XMLID_415_">
	<g id="XMLID_416_">
		<path id="XMLID_423_" class="st0" d="M19,0H6.5H5.7H1.1l4.5,4.5L6,4.9c0.4,0.4,0.5,0.8,0.5,1.3v0.4v5.8v1.9h1.9h5.8h0.4
			c0.5,0,1,0.2,1.3,0.5l0.3,0.3l1.4,1.4l3.2,3.2v-4.5v-0.1v-0.9V1.9C20.9,0.8,20,0,19,0z"/>
		<path id="XMLID_424_" class="st0" d="M15.7,15.7l-0.5-0.5h-0.8H7.5H5.7v-1.9V6.4V5.7L5.1,5.1l0,0L3.2,3.2l0,0L0,0v4.5V19
			c0,1,0.8,1.9,1.9,1.9h14.5h4.5l-3.2-3.2L15.7,15.7z"/>
	</g>
	<g id="XMLID_425_">
		<polygon id="XMLID_426_" class="st0" points="34.1,20.9 34.1,0 38.9,0 38.9,16.1 49.4,16.1 49.4,20.9 		"/>
		<path id="XMLID_427_" class="st0" d="M58.2,20.9c-3.2,0-5.9-2.8-5.9-5.9v-9c0-3.2,2.8-5.9,6-5.9h7c3.2,0,5.9,2.7,5.9,5.9v9
			c0,3.2-2.8,5.9-5.9,5.9H58.2z M58.2,4.8c-1.1,0-1.1,0.1-1.2,1.1l0,9c0,1,0.1,1.1,1.1,1.1h7c1,0,1.1-0.1,1.1-1.1v-9
			c0-0.7-0.1-0.9-0.1-1c0,0-0.1-0.1-0.9-0.1H58.2z"/>
		<path id="XMLID_432_" class="st0" d="M94,20.9l-0.7-1.2L92,17.3H80.4L79,19.7l-0.7,1.2h-5.5l2.1-3.6l9.2-16.1L84.8,0h2.8l0.7,1.2
			l9.2,16.1l2.1,3.6H94z M83.2,12.5h6l-3-5.3L83.2,12.5z"/>
		<polygon id="XMLID_435_" class="st0" points="117.9,20.9 117.2,20 107.4,8.8 107.4,20.9 102.6,20.9 102.6,0 106.1,0 106.8,0.8 
			116.6,12.1 116.6,0 121.4,0 121.4,20.9 		"/>
		<polygon id="XMLID_436_" class="st0" points="145.9,20.9 145.9,10.5 140.7,19.7 140,20.9 137.3,20.9 136.6,19.7 131.5,10.5 
			131.5,20.9 126.7,20.9 126.7,0 130.4,0 131.1,1.2 138.7,14.1 146.2,1.2 146.9,0 150.7,0 150.7,20.9 		"/>
		<polygon id="XMLID_437_" class="st0" points="153.7,20.9 153.7,0 172.5,0 172.5,4.8 158.5,4.8 158.5,8 169,8 169,12.8 158.5,12.8 
			158.5,16.1 172.5,16.1 172.5,20.9 		"/>
		<polygon id="XMLID_438_" class="st0" points="175.7,20.9 175.7,0 194.5,0 194.5,4.8 180.5,4.8 180.5,8 191,8 191,12.8 180.5,12.8 
			180.5,16.1 194.5,16.1 194.5,20.9 		"/>
		<polygon id="XMLID_439_" class="st0" points="204.2,20.9 204.2,4.8 197.2,4.8 197.2,0 216,0 216,4.8 209,4.8 209,20.9 		"/>
	</g>
</g>
</svg>
