<?xml version="1.0" encoding="utf-8"?>
<!-- Generator: Adobe Illustrator 19.0.0, SVG Export Plug-In . SVG Version: 6.00 Build 0)  -->
<svg version="1.1" id="Layer_1" xmlns="http://www.w3.org/2000/svg" xmlns:xlink="http://www.w3.org/1999/xlink" x="0px" y="0px"
	 viewBox="0 0 562.7 497.4" style="enable-background:new 0 0 562.7 497.4;" xml:space="preserve">
<style type="text/css">
	.st0{fill:#16A4DD;}
	.st1{fill:#1568A1;}
	.st2{fill:#D0E0EA;}
	.st3{fill:#42CFB3;}
	.st4{fill:#FFFFFF;}
	.st5{fill:none;stroke:#16A4DD;stroke-width:9.0164;stroke-miterlimit:10;}
	.st6{fill:url(#XMLID_22_);}
	.st7{fill:#F2F3F5;}
	.st8{fill:url(#XMLID_23_);}
	.st9{fill:url(#XMLID_24_);}
	.st10{fill:url(#XMLID_25_);}
	.st11{fill:url(#XMLID_26_);}
	.st12{fill:url(#XMLID_27_);}
	.st13{fill:url(#XMLID_28_);}
	.st14{fill:url(#XMLID_29_);}
</style>
<g id="XMLID_3_">
	<g id="XMLID_225_">
		<path id="XMLID_258_" class="st0" d="M536,453.6c-11.1,0-20.1,9-20.1,20.1s9,20.1,20.1,20.1c11.1,0,20.1-9,20.1-20.1
			S547,453.6,536,453.6z M536,480.3c-3.7,0-6.7-3-6.7-6.7s3-6.7,6.7-6.7c3.7,0,6.7,3,6.7,6.7S539.7,480.3,536,480.3z"/>
		<path id="XMLID_249_" class="st0" d="M482.4,400c-11.1,0-20.1,9-20.1,20.1s9,20.1,20.1,20.1c11.1,0,20.1-9,20.1-20.1
			S493.5,400,482.4,400z M482.4,426.8c-3.7,0-6.7-3-6.7-6.7s3-6.7,6.7-6.7c3.7,0,6.7,3,6.7,6.7S486.1,426.8,482.4,426.8z"/>
		<path id="XMLID_226_" class="st0" d="M530.4,403c2-3.1,6.2-3.9,9.3-1.9c3.1,2.1,3.9,6.2,1.9,9.3L488,490.8c-2,3-6.2,3.9-9.3,1.9
			c-3.1-2.1-3.9-6.2-1.9-9.3L530.4,403z"/>
	</g>
	<g id="XMLID_220_">
		<path id="XMLID_221_" class="st1" d="M549.6,199c-0.8-0.8-1.8-1.2-3-1.2h-22.3c-1.5-7.2-4.3-13.5-8.3-18.8h30.3
			c1.2,0,2.2-0.4,3-1.2c0.8-0.8,1.2-1.8,1.2-3v-13.3c0-1.2-0.4-2.2-1.2-3c-0.8-0.8-1.8-1.2-3-1.2H437.9c-1.2,0-2.2,0.4-3,1.2
			c-0.8,0.8-1.2,1.8-1.2,3v17.3c0,1.1,0.4,2.1,1.2,2.9c0.8,0.8,1.8,1.2,2.9,1.2h18.9c18.3,0,30,4.9,34.9,14.7h-53.8
			c-1.2,0-2.2,0.4-3,1.2c-0.8,0.8-1.2,1.8-1.2,3v13.3c0,1.2,0.4,2.2,1.2,3c0.8,0.8,1.8,1.2,3,1.2h55.6c-1.9,7.1-6.4,12.6-13.4,16.3
			c-7,3.7-16.2,5.6-27.7,5.6h-14.6c-1.1,0-2.1,0.4-2.9,1.2c-0.8,0.8-1.2,1.8-1.2,2.9V262c0,1.1,0.4,2.1,1.2,2.9
			c16.7,17.7,38.3,42.5,64.9,74.4c0.8,1,1.9,1.6,3.3,1.6h25.4c1.8,0,3.1-0.8,3.8-2.4c0.9-1.6,0.7-3-0.5-4.4
			c-25.4-31.1-45.3-54.4-59.8-69.8c14.8-1.7,26.7-6.5,36-14.3c9.2-7.8,14.8-18,16.8-30.5h21.9c1.2,0,2.2-0.4,3-1.2
			c0.8-0.8,1.2-1.8,1.2-3v-13.3C550.7,200.7,550.4,199.7,549.6,199L549.6,199z M549.6,199"/>
	</g>
	<path id="XMLID_215_" class="st2" d="M41.8,295.1c3.3,11.5,8,22.6,13.9,33L39,349.2c-5.5,6.9-4.9,16.8,1.3,23L69.1,401
		c6.2,6.2,16.1,6.8,23,1.3l21-16.6c10.8,6.2,22.3,11.1,34.3,14.5l3.1,27c1,8.8,8.4,15.3,17.2,15.3h40.8c8.8,0,16.1-6.6,17.2-15.3
		l3-26.1c12.9-3.3,25.2-8.3,36.7-14.8l20.3,16.1c6.9,5.5,16.8,4.9,23-1.3l28.9-28.9c6.2-6.2,6.8-16.1,1.3-23l-15.8-20
		c6.6-11.4,11.7-23.5,15.1-36.1l24.3-2.8c8.8-1,15.3-8.4,15.3-17.2v-40.8c0-8.8-6.6-16.1-15.3-17.2l-24-2.8
		c-3.3-12.5-8.2-24.5-14.5-35.7l14.8-18.7c5.5-6.9,4.9-16.8-1.3-23l-28.8-28.8c-6.2-6.2-16.1-6.8-23-1.3l-18.1,14.4
		c-11.8-6.9-24.3-12.2-37.5-15.7l-2.7-23.5c-1-8.8-8.4-15.3-17.2-15.3h-40.8c-8.8,0-16.1,6.6-17.2,15.3l-2.7,23.5
		c-13.5,3.6-26.5,9.1-38.5,16.3L92.1,105c-6.9-5.5-16.8-4.9-23,1.3l-28.9,28.9c-6.2,6.2-6.8,16.1-1.3,23L54.7,178
		c-6.3,11.4-11.1,23.5-14.2,36l-25.2,2.9c-8.8,1-15.3,8.4-15.3,17.2v40.8c0,8.8,6.6,16.1,15.3,17.2L41.8,295.1z M189.7,184.7
		c37.2,0,67.5,30.3,67.5,67.5c0,37.2-30.3,67.5-67.5,67.5s-67.5-30.3-67.5-67.5C122.3,215,152.5,184.7,189.7,184.7L189.7,184.7z
		 M189.7,184.7"/>
	<g id="XMLID_208_">
		<g id="XMLID_213_">
			<path id="XMLID_214_" class="st3" d="M262.6,18.6h-20.5c-2.3,0-4.2-1.9-4.2-4.2s1.9-4.2,4.2-4.2h20.5c2.3,0,4.2,1.9,4.2,4.2
				S264.9,18.6,262.6,18.6z"/>
		</g>
		<g id="XMLID_210_">
			<path id="XMLID_212_" class="st3" d="M252.3,28.9c-2.3,0-4.2-1.9-4.2-4.2V4.2c0-2.3,1.9-4.2,4.2-4.2c2.3,0,4.2,1.9,4.2,4.2v20.5
				C256.5,27,254.6,28.9,252.3,28.9z"/>
		</g>
	</g>
	<g id="XMLID_205_">
		<path id="XMLID_206_" class="st0" d="M558.5,303c-1.1,0-2.2-0.4-3-1.2l-5.9-5.9l-5.9,5.9c-1.6,1.6-4.3,1.6-5.9,0
			c-1.6-1.6-1.6-4.3,0-5.9l8.9-8.9c1.6-1.6,4.4-1.6,5.9,0l8.9,8.9c1.6,1.6,1.6,4.3,0,5.9C560.6,302.6,559.5,303,558.5,303z"/>
	</g>
	<g id="XMLID_190_">
		<path id="XMLID_191_" class="st3" d="M88.4,473.6c-7.8,0-14.1-6.3-14.1-14.1c0-7.8,6.3-14.1,14.1-14.1c7.8,0,14.1,6.3,14.1,14.1
			C102.4,467.3,96.1,473.6,88.4,473.6z M88.4,453.8c-3.1,0-5.7,2.5-5.7,5.7c0,3.1,2.5,5.7,5.7,5.7c3.1,0,5.7-2.5,5.7-5.7
			C94,456.4,91.5,453.8,88.4,453.8z"/>
	</g>
	<g id="XMLID_176_">
		<path id="XMLID_180_" class="st2" d="M431.1,94.2c-7.8,0-14.1-6.3-14.1-14.1S423.4,66,431.1,66c7.8,0,14.1,6.3,14.1,14.1
			S438.9,94.2,431.1,94.2z M431.1,74.4c-3.1,0-5.7,2.5-5.7,5.7c0,3.1,2.5,5.7,5.7,5.7c3.1,0,5.7-2.5,5.7-5.7
			C436.8,77,434.3,74.4,431.1,74.4z"/>
	</g>
	<g id="XMLID_174_">
		<path id="XMLID_175_" class="st4" d="M97.4,308.5c-2.5,0-5-1.3-6.4-3.7c-9.7-16.8-14.8-35.9-14.8-55.4
			c0-61,49.6-110.7,110.7-110.7c29.6,0,57.3,11.5,78.2,32.4c2.9,2.9,2.9,7.6,0,10.4c-2.9,2.9-7.6,2.9-10.4,0
			c-18.1-18.1-42.2-28.1-67.8-28.1c-52.9,0-95.9,43-95.9,95.9c0,16.9,4.4,33.5,12.9,48c2,3.5,0.8,8-2.7,10.1
			C99.9,308.2,98.6,308.5,97.4,308.5z"/>
	</g>
	<path id="XMLID_159_" class="st5" d="M113.5,294.4"/>
	<g id="XMLID_4_">
		<linearGradient id="XMLID_22_" gradientUnits="userSpaceOnUse" x1="291.4589" y1="276.1848" x2="291.4589" y2="493.4258">
			<stop  offset="0" style="stop-color:#1568A1"/>
			<stop  offset="1" style="stop-color:#16A4DD"/>
		</linearGradient>
		<path id="XMLID_156_" class="st6" d="M445.2,497.4H137.7c-3.2,0-5.8-2.6-5.8-5.8V287.4c0-3.2,2.6-5.8,5.8-5.8h307.4
			c3.2,0,5.8,2.6,5.8,5.8v204.2C451,494.8,448.4,497.4,445.2,497.4z"/>
		<path id="XMLID_41_" class="st7" d="M238.4,497.4h-74.2V366.1c0-2.1,1.7-3.8,3.8-3.8h66.6c2.1,0,3.8,1.7,3.8,3.8V497.4z"/>
		<linearGradient id="XMLID_23_" gradientUnits="userSpaceOnUse" x1="291.3541" y1="223.4184" x2="291.3541" y2="264.5633">
			<stop  offset="0" style="stop-color:#42CFB3"/>
			<stop  offset="1" style="stop-color:#16A4DD"/>
		</linearGradient>
		<path id="XMLID_38_" class="st8" d="M468.5,224.3H114.2c-3,0-5.4,2.4-5.4,5.4v29.5c0,3,2.4,5.4,5.4,5.4h354.2c3,0,5.4-2.4,5.4-5.4
			v-29.5C473.9,226.7,471.5,224.3,468.5,224.3z"/>
		<linearGradient id="XMLID_24_" gradientUnits="userSpaceOnUse" x1="154.0733" y1="263.0673" x2="154.0733" y2="335.8188">
			<stop  offset="0" style="stop-color:#42CFB3"/>
			<stop  offset="1" style="stop-color:#16A4DD"/>
		</linearGradient>
		<path id="XMLID_37_" class="st9" d="M188.1,264.6H120v37c0,18.9,15.3,34.3,34.3,34.3c17,0,31.1-12.4,33.8-28.7V264.6z"/>
		<linearGradient id="XMLID_25_" gradientUnits="userSpaceOnUse" x1="154.0733" y1="263.0673" x2="154.0733" y2="335.8188">
			<stop  offset="0" style="stop-color:#42CFB3"/>
			<stop  offset="1" style="stop-color:#16A4DD"/>
		</linearGradient>
		<path id="XMLID_32_" class="st10" d="M188.1,264.6H120v37c0,18.9,15.3,34.3,34.3,34.3c17,0,31.1-12.4,33.8-28.7V264.6z"/>
		<linearGradient id="XMLID_26_" gradientUnits="userSpaceOnUse" x1="222.1402" y1="263.0673" x2="222.1402" y2="335.8188">
			<stop  offset="0" style="stop-color:#1568A1"/>
			<stop  offset="1" style="stop-color:#42CFB3"/>
		</linearGradient>
		<path id="XMLID_18_" class="st11" d="M256.2,264.6h-68.1v37c0,18.9,15.3,34.3,34.3,34.3c17,0,31.1-12.4,33.8-28.7V264.6z"/>
		<linearGradient id="XMLID_27_" gradientUnits="userSpaceOnUse" x1="290.2071" y1="263.0673" x2="290.2071" y2="335.8188">
			<stop  offset="0" style="stop-color:#42CFB3"/>
			<stop  offset="1" style="stop-color:#16A4DD"/>
		</linearGradient>
		<path id="XMLID_17_" class="st12" d="M324.2,264.6h-68.1v37c0,18.9,15.3,34.3,34.3,34.3c17,0,31.1-12.4,33.8-28.7V264.6z"/>
		<linearGradient id="XMLID_28_" gradientUnits="userSpaceOnUse" x1="358.274" y1="263.0673" x2="358.274" y2="335.8188">
			<stop  offset="0" style="stop-color:#1568A1"/>
			<stop  offset="1" style="stop-color:#42CFB3"/>
		</linearGradient>
		<path id="XMLID_14_" class="st13" d="M392.3,264.6h-68.1v37c0,18.9,15.3,34.3,34.3,34.3c17,0,31.1-12.4,33.8-28.7V264.6z"/>
		<linearGradient id="XMLID_29_" gradientUnits="userSpaceOnUse" x1="426.3409" y1="263.0673" x2="426.3409" y2="335.8188">
			<stop  offset="0" style="stop-color:#42CFB3"/>
			<stop  offset="1" style="stop-color:#16A4DD"/>
		</linearGradient>
		<path id="XMLID_13_" class="st14" d="M460.4,264.6h-68.1v37c0,18.9,15.3,34.3,34.3,34.3c17,0,31.1-12.4,33.8-28.7V264.6z"/>
		<path id="XMLID_6_" class="st7" d="M404.1,465.9H279.7c-2.6,0-4.8-2.1-4.8-4.8V367c0-2.6,2.1-4.8,4.8-4.8h124.5
			c2.6,0,4.8,2.1,4.8,4.8v94.1C408.9,463.8,406.7,465.9,404.1,465.9z"/>
	</g>
</g>
</svg>
