<?xml version="1.0" encoding="utf-8"?>
<!-- Generator: Adobe Illustrator 19.0.0, SVG Export Plug-In . SVG Version: 6.00 Build 0)  -->
<svg version="1.1" id="Layer_1" xmlns="http://www.w3.org/2000/svg" xmlns:xlink="http://www.w3.org/1999/xlink" x="0px" y="0px"
	 viewBox="0 0 565.3 498.2" style="enable-background:new 0 0 565.3 498.2;" xml:space="preserve">
<style type="text/css">
	.st0{fill:#D0E0EA;}
	.st1{fill:#FFFFFF;}
	.st2{fill:#16A4DD;}
	.st3{fill:url(#XMLID_28_);}
	.st4{fill:#1568A1;}
	.st5{fill:url(#XMLID_29_);}
	.st6{fill:url(#XMLID_30_);}
	.st7{fill:url(#XMLID_31_);}
	.st8{fill:url(#XMLID_32_);}
	.st9{fill:url(#XMLID_33_);}
	.st10{fill:url(#XMLID_34_);}
	.st11{fill:url(#XMLID_35_);}
	.st12{fill:#42CFB3;}
</style>
<g id="XMLID_158_">
	<g id="XMLID_289_">
		<g id="XMLID_374_">
			<path id="XMLID_393_" class="st0" d="M344.7,479.7L75.8,389.5c-5-1.7-7.7-7.1-6-12.1L193.3,8.8c1.7-5,7.1-7.7,12.1-6l268.9,90.1
				c5,1.7,7.7,7.1,6,12.1L356.8,473.6C355.1,478.7,349.7,481.4,344.7,479.7z"/>
			<path id="XMLID_392_" class="st1" d="M322.4,434.1L121,366.6c-4.3-1.4-6.5-6-5.1-10.3L217.4,53.5c1.4-4.3,6-6.5,10.3-5.1
				l201.4,67.5c4.3,1.4,6.5,6,5.1,10.3L332.7,429C331.3,433.3,326.6,435.6,322.4,434.1z"/>
			<g id="XMLID_390_">
				<path id="XMLID_391_" class="st0" d="M393.4,169.9c-0.6,0-1.2-0.1-1.7-0.3l-161-54c-2.9-1-4.4-4.1-3.4-6.9
					c1-2.9,4.1-4.4,6.9-3.4l161,54c2.9,1,4.4,4.1,3.4,6.9C397.8,168.5,395.7,169.9,393.4,169.9z"/>
			</g>
			<g id="XMLID_388_">
				<path id="XMLID_389_" class="st0" d="M381.2,206.3c-0.6,0-1.2-0.1-1.7-0.3l-161-54c-2.9-1-4.4-4.1-3.4-6.9
					c1-2.9,4.1-4.4,6.9-3.4l161,54c2.9,1,4.4,4.1,3.4,6.9C385.6,204.9,383.5,206.3,381.2,206.3z"/>
			</g>
			<g id="XMLID_386_">
				<path id="XMLID_387_" class="st0" d="M369,242.7c-0.6,0-1.2-0.1-1.7-0.3l-161-54c-2.9-1-4.4-4.1-3.4-6.9c1-2.9,4.1-4.4,6.9-3.4
					l161,54c2.9,1,4.4,4.1,3.4,6.9C373.4,241.3,371.3,242.7,369,242.7z"/>
			</g>
			<g id="XMLID_379_">
				<path id="XMLID_380_" class="st0" d="M356.8,279.1c-0.6,0-1.2-0.1-1.7-0.3l-161-54c-2.9-1-4.4-4.1-3.4-6.9
					c1-2.9,4.1-4.4,6.9-3.4l161,54c2.9,1,4.4,4.1,3.4,6.9C361.2,277.6,359.1,279.1,356.8,279.1z"/>
			</g>
			<g id="XMLID_377_">
				<path id="XMLID_378_" class="st0" d="M344.6,315.5c-0.6,0-1.2-0.1-1.7-0.3l-161-54c-2.9-1-4.4-4.1-3.4-6.9
					c1-2.9,4.1-4.4,6.9-3.4l161,54c2.9,1,4.4,4.1,3.4,6.9C349,314,346.9,315.5,344.6,315.5z"/>
			</g>
			<g id="XMLID_375_">
				<path id="XMLID_376_" class="st0" d="M274.1,332.3c-0.6,0-1.2-0.1-1.7-0.3l-102.7-34.4c-2.9-1-4.4-4.1-3.4-6.9
					c1-2.9,4.1-4.4,6.9-3.4l102.7,34.4c2.9,1,4.4,4.1,3.4,6.9C278.5,330.9,276.4,332.3,274.1,332.3z"/>
			</g>
		</g>
		<g id="XMLID_293_">
			<path id="XMLID_373_" class="st2" d="M359,113c-2.2,0-4.5-0.4-6.7-1.2l-64.5-24.6c-10.2-3.6-15.6-14.9-12.1-25.2l10.8-31.4
				c1-2.9,4.1-4.4,7-3.4c2.9,1,4.4,4.1,3.4,7L286,65.6c-1.6,4.7,0.9,9.8,5.5,11.4l64.5,24.6c4.5,1.6,9.5-0.7,11.3-5.3l12.5-32.5
				c1.1-2.8,4.3-4.2,7.1-3.1c2.8,1.1,4.2,4.2,3.1,7.1l-12.5,32.5C374.5,108.1,367,113,359,113z"/>
		</g>
	</g>
	<path id="XMLID_287_" class="st2" d="M565.2,264.7c0-0.3,0-0.7-0.1-1c0-0.3-0.1-0.5-0.2-0.8c-0.1-0.3-0.2-0.6-0.3-0.9
		c-0.1-0.3-0.2-0.5-0.4-0.8c-0.1-0.3-0.3-0.5-0.4-0.8c-0.2-0.3-0.4-0.5-0.6-0.8c-0.1-0.2-0.2-0.4-0.4-0.5c0,0-0.1-0.1-0.1-0.1
		c-0.2-0.2-0.5-0.4-0.8-0.7c-0.2-0.2-0.4-0.3-0.6-0.5c-0.2-0.2-0.5-0.3-0.8-0.4c-0.2-0.1-0.5-0.3-0.7-0.4c-0.2-0.1-0.5-0.2-0.7-0.2
		c-0.3-0.1-0.6-0.2-0.9-0.3c-0.2,0-0.4-0.1-0.7-0.1c-0.4,0-0.7-0.1-1.1-0.1c0,0-0.1,0-0.1,0h-27.5c-4.9,0-8.9,4-8.9,8.9
		c0,4.9,4,8.9,8.9,8.9h5L495.7,310l-35.9-23.9c-3.5-2.3-8.1-1.9-11.1,1l-59.9,57.4c-3.5,3.4-3.7,9-0.3,12.6c1.7,1.8,4.1,2.7,6.4,2.7
		c2.2,0,4.4-0.8,6.2-2.5l54.7-52.4l35.8,23.9c3.4,2.3,8,1.9,11-0.9l44.7-42v6.3c0,4.9,4,8.9,8.9,8.9c4.9,0,8.9-4,8.9-8.9v-26.9
		C565.3,265.1,565.2,264.9,565.2,264.7z"/>
	<g id="XMLID_284_">
		<linearGradient id="XMLID_28_" gradientUnits="userSpaceOnUse" x1="336.1364" y1="238.6287" x2="336.1364" y2="340.7846">
			<stop  offset="0" style="stop-color:#1568A1"/>
			<stop  offset="1" style="stop-color:#16A4DD"/>
		</linearGradient>
		<path id="XMLID_286_" class="st3" d="M411.6,373.4h-151c-2.5,0-4.5-2-4.5-4.5v-96.4c0-2.5,2-4.5,4.5-4.5h151c2.5,0,4.5,2,4.5,4.5
			v96.4C416.1,371.4,414.1,373.4,411.6,373.4z"/>
		<rect id="XMLID_285_" x="330.4" y="268" class="st4" width="11.5" height="105.4"/>
	</g>
	<g id="XMLID_280_">
		<linearGradient id="XMLID_29_" gradientUnits="userSpaceOnUse" x1="185.8053" y1="252.7509" x2="185.8053" y2="371.3218">
			<stop  offset="0" style="stop-color:#42CFB3"/>
			<stop  offset="1" style="stop-color:#16A4DD"/>
		</linearGradient>
		<path id="XMLID_283_" class="st5" d="M248.9,373.4H122.8c-2.5,0-4.5-2-4.5-4.5V245.4h135v123.5
			C253.3,371.4,251.3,373.4,248.9,373.4z"/>
		<linearGradient id="XMLID_30_" gradientUnits="userSpaceOnUse" x1="185.8053" y1="252.2803" x2="185.8053" y2="230.6937">
			<stop  offset="0" style="stop-color:#1568A1"/>
			<stop  offset="1" style="stop-color:#16A4DD"/>
		</linearGradient>
		<path id="XMLID_282_" class="st6" d="M253.3,252.5h-135v-22.9c0-2.2,1.8-3.9,3.9-3.9h127.2c2.2,0,3.9,1.8,3.9,3.9V252.5z"/>
		<linearGradient id="XMLID_31_" gradientUnits="userSpaceOnUse" x1="188.1839" y1="372.3212" x2="188.1839" y2="253.4051">
			<stop  offset="0" style="stop-color:#1568A1"/>
			<stop  offset="1" style="stop-color:#16A4DD"/>
		</linearGradient>
		<rect id="XMLID_281_" x="180.2" y="225.7" class="st7" width="15.9" height="147.7"/>
	</g>
	<g id="XMLID_278_">
		<path id="XMLID_279_" class="st4" d="M62.7,99H8.9C4,99,0,95,0,90.1s4-8.9,8.9-8.9h53.8c4.9,0,8.9,4,8.9,8.9S67.6,99,62.7,99z"/>
	</g>
	<g id="XMLID_276_">
		<path id="XMLID_277_" class="st4" d="M446.7,402.2H97.1c-4.9,0-8.9-4-8.9-8.9V92c0-4.9,4-8.9,8.9-8.9s8.9,4,8.9,8.9v292.4h340.8
			c4.9,0,8.9,4,8.9,8.9S451.7,402.2,446.7,402.2z"/>
	</g>
	<g id="XMLID_272_">
		<path id="XMLID_273_" class="st4" d="M150,498.2c-22.4,0-40.6-18.2-40.6-40.6c0-22.4,18.2-40.6,40.6-40.6
			c22.4,0,40.6,18.2,40.6,40.6C190.6,479.9,172.4,498.2,150,498.2z M150,434.7c-12.6,0-22.8,10.2-22.8,22.8
			c0,12.6,10.2,22.8,22.8,22.8c12.6,0,22.8-10.2,22.8-22.8C172.8,445,162.6,434.7,150,434.7z"/>
	</g>
	<g id="XMLID_262_">
		<path id="XMLID_269_" class="st4" d="M383.9,498.2c-22.4,0-40.6-18.2-40.6-40.6c0-22.4,18.2-40.6,40.6-40.6
			c22.4,0,40.6,18.2,40.6,40.6C424.5,479.9,406.3,498.2,383.9,498.2z M383.9,434.7c-12.6,0-22.8,10.2-22.8,22.8
			c0,12.6,10.2,22.8,22.8,22.8c12.6,0,22.8-10.2,22.8-22.8C406.7,445,396.5,434.7,383.9,434.7z"/>
	</g>
	<g id="XMLID_260_">
		<linearGradient id="XMLID_32_" gradientUnits="userSpaceOnUse" x1="333.1476" y1="206.9639" x2="333.1476" y2="266.3543">
			<stop  offset="0" style="stop-color:#42CFB3"/>
			<stop  offset="1" style="stop-color:#16A4DD"/>
		</linearGradient>
		<path id="XMLID_408_" class="st8" d="M397.5,265.3H268.8c-2.2,0-4-1.8-4-4v-57.7h136.7v57.7C401.5,263.5,399.7,265.3,397.5,265.3z
			"/>
		<linearGradient id="XMLID_33_" gradientUnits="userSpaceOnUse" x1="333.1476" y1="193.0836" x2="333.1476" y2="209.3318">
			<stop  offset="0" style="stop-color:#42CFB3"/>
			<stop  offset="1" style="stop-color:#16A4DD"/>
		</linearGradient>
		<path id="XMLID_407_" class="st9" d="M404.7,208.1h-143v-13.6c0-2,1.7-3.7,3.7-3.7H401c2,0,3.7,1.7,3.7,3.7V208.1z"/>
		<linearGradient id="XMLID_34_" gradientUnits="userSpaceOnUse" x1="291.7419" y1="190.4957" x2="291.7419" y2="207.441">
			<stop  offset="0" style="stop-color:#1568A1"/>
			<stop  offset="1" style="stop-color:#16A4DD"/>
		</linearGradient>
		<rect id="XMLID_406_" x="287.3" y="190.8" class="st10" width="8.9" height="17.3"/>
		<linearGradient id="XMLID_35_" gradientUnits="userSpaceOnUse" x1="376.7883" y1="190.9662" x2="376.7883" y2="208.1547">
			<stop  offset="0" style="stop-color:#1568A1"/>
			<stop  offset="1" style="stop-color:#16A4DD"/>
		</linearGradient>
		<rect id="XMLID_405_" x="372.3" y="190.8" class="st11" width="8.9" height="17.3"/>
	</g>
	<g id="XMLID_254_">
		<g id="XMLID_257_">
			<path id="XMLID_259_" class="st12" d="M139.4,71.8h-18.6c-2.1,0-3.8-1.7-3.8-3.8s1.7-3.8,3.8-3.8h18.6c2.1,0,3.8,1.7,3.8,3.8
				S141.5,71.8,139.4,71.8z"/>
		</g>
		<g id="XMLID_255_">
			<path id="XMLID_256_" class="st12" d="M130.1,81.1c-2.1,0-3.8-1.7-3.8-3.8V58.7c0-2.1,1.7-3.8,3.8-3.8c2.1,0,3.8,1.7,3.8,3.8
				v18.6C133.9,79.4,132.2,81.1,130.1,81.1z"/>
		</g>
	</g>
	<g id="XMLID_93_">
		<g id="XMLID_250_">
			<path id="XMLID_253_" class="st2" d="M516.2,387.7h-18.6c-2.1,0-3.8-1.7-3.8-3.8c0-2.1,1.7-3.8,3.8-3.8h18.6
				c2.1,0,3.8,1.7,3.8,3.8C520.1,386,518.4,387.7,516.2,387.7z"/>
		</g>
		<g id="XMLID_167_">
			<path id="XMLID_242_" class="st2" d="M507,397c-2.1,0-3.8-1.7-3.8-3.8v-18.6c0-2.1,1.7-3.8,3.8-3.8c2.1,0,3.8,1.7,3.8,3.8v18.6
				C510.8,395.3,509.1,397,507,397z"/>
		</g>
	</g>
	<g id="XMLID_83_">
		<path id="XMLID_85_" class="st2" d="M403.1,15.7c-1,0-2-0.4-2.7-1.1L395,9.2l-5.4,5.4c-1.5,1.5-3.9,1.5-5.4,0
			c-1.5-1.5-1.5-3.9,0-5.4l8.1-8.1c1.5-1.5,3.9-1.5,5.4,0l8.1,8.1c1.5,1.5,1.5,3.9,0,5.4C405,15.3,404,15.7,403.1,15.7z"/>
	</g>
	<g id="XMLID_80_">
		<path id="XMLID_82_" class="st2" d="M46.1,342.9c-1,0-2-0.4-2.7-1.1l-5.4-5.4l-5.4,5.4c-1.5,1.5-3.9,1.5-5.4,0
			c-1.5-1.5-1.5-3.9,0-5.4l8.1-8.1c1.4-1.4,4-1.4,5.4,0l8.1,8.1c1.5,1.5,1.5,3.9,0,5.4C48.1,342.5,47.1,342.9,46.1,342.9z"/>
	</g>
	<g id="XMLID_78_">
		<path id="XMLID_79_" class="st0" d="M40.7,213c-2.1,0-3.8-1.7-3.8-3.8v-7.6h-9.4c-2.1,0-3.8-1.7-3.8-3.8c0-2.1,1.7-3.8,3.8-3.8
			h13.2c2.1,0,3.8,1.7,3.8,3.8v11.4C44.5,211.3,42.8,213,40.7,213z"/>
	</g>
	<g id="XMLID_66_">
		<path id="XMLID_69_" class="st0" d="M493.9,223c-7.1,0-12.8-5.7-12.8-12.8s5.7-12.8,12.8-12.8c7,0,12.8,5.7,12.8,12.8
			S500.9,223,493.9,223z M493.9,205.1c-2.8,0-5.2,2.3-5.2,5.2s2.3,5.2,5.2,5.2c2.8,0,5.2-2.3,5.2-5.2S496.7,205.1,493.9,205.1z"/>
	</g>
</g>
</svg>
