<?xml version="1.0" encoding="utf-8"?>
<!-- Generator: Adobe Illustrator 19.0.0, SVG Export Plug-In . SVG Version: 6.00 Build 0)  -->
<svg version="1.1" id="Layer_1" xmlns="http://www.w3.org/2000/svg" xmlns:xlink="http://www.w3.org/1999/xlink" x="0px" y="0px"
	 viewBox="0 0 565.3 498.2" style="enable-background:new 0 0 565.3 498.2;" xml:space="preserve">
<style type="text/css">
	.st0{fill:#D0E0EA;}
	.st1{fill:url(#XMLID_28_);}
	.st2{fill:#1568A1;}
	.st3{fill:#42CFB3;}
	.st4{fill:#16A4DD;}
	.st5{fill:url(#XMLID_29_);}
	.st6{fill:#FFFFFF;}
	.st7{fill:url(#XMLID_30_);}
	.st8{fill:none;stroke:#16A4DD;stroke-width:7.3572;stroke-linecap:round;stroke-linejoin:round;stroke-miterlimit:10;}
	.st9{fill:url(#XMLID_31_);}
	.st10{fill:#F2F3F5;}
</style>
<g id="XMLID_596_">
	<g id="XMLID_597_">
		<g id="XMLID_598_">
			<g id="XMLID_599_">
				<path id="XMLID_310_" class="st0" d="M291.4,346.2c-39.3-70.3-14.1-159.5,56.2-198.8s159.5-14.1,198.8,56.2
					c39.3,70.3,14.1,159.5-56.2,198.8S330.7,416.5,291.4,346.2z"/>
			</g>
		</g>
		
			<linearGradient id="XMLID_28_" gradientUnits="userSpaceOnUse" x1="-1237.364" y1="534.0292" x2="-971.5225" y2="534.0292" gradientTransform="matrix(0.8528 0.5222 -0.5222 0.8528 1639.6078 396.2074)">
			<stop  offset="0" style="stop-color:#1568A1"/>
			<stop  offset="1" style="stop-color:#16A4DD"/>
		</linearGradient>
		<path id="XMLID_306_" class="st1" d="M534.9,209.9c-35.8-64-117-86.9-180.9-51.1c-64,35.8-86.9,117-51.1,180.9
			c35.8,64,117,86.9,180.9,51.1C547.7,355.1,570.7,273.9,534.9,209.9z M478.1,380.8c-58.4,32.7-132.5,11.7-165.2-46.7
			c-32.7-58.4-11.8-132.5,46.7-165.2c58.4-32.7,132.5-11.8,165.2,46.7C557.5,274,536.5,348.1,478.1,380.8z"/>
		<g id="XMLID_302_">
			<g id="XMLID_303_">
				<path id="XMLID_305_" class="st2" d="M427.7,263.2c-0.4-0.1-0.7-0.2-1.1-0.3c-11.2-3.1-22.5-6.3-33.7-9.4
					c-0.5-0.1-1-0.3-1.5-0.6c-1-0.5-1.6-1.5-1.3-2.6c0.8-3.2,1.7-6.3,2.6-9.5c0.4-1.2,1.5-1.7,2.7-1.5c0.5,0.1,1,0.2,1.5,0.3
					c10.8,3,21.5,6,32.3,9c0.4,0.1,0.8,0.2,1.4,0.4c-0.3-1.1-0.6-2-0.9-2.8c-1.6-3.9-4.7-6.5-8.3-8.6c-3.6-2.1-7.5-3.4-11.5-4.5
					c-3.5-1-7.1-2-10.7-3c-2.5-0.7-3.2-1.9-2.5-4.4c0.9-3.2,1.8-6.5,2.7-9.7c0.7-2.5,1.8-3.2,4.3-2.5c22.8,6.4,45.7,12.7,68.5,19.1
					c2.4,0.7,3.1,1.9,2.4,4.3c-0.7,2.5-1.4,4.9-2.1,7.4c-0.7,2.3-1.9,3-4.2,2.3c-5.8-1.6-11.7-3.3-17.5-4.9
					c-0.4-0.1-0.8-0.2-1.4-0.4c0.1,0.4,0.2,0.8,0.3,1c1.3,3.7,1.9,7.5,1.6,11.4c0,0.9,0.2,1.3,1.1,1.5c4.2,1.1,8.3,2.3,12.5,3.5
					c2.5,0.7,3.2,1.8,2.5,4.3c-0.7,2.4-1.3,4.8-2,7.3c-0.7,2.4-1.8,3-4.2,2.4c-4.2-1.2-8.3-2.3-12.5-3.5c-0.7-0.2-1.1-0.2-1.5,0.6
					c-3.4,7.1-8.6,12.4-15.8,15.7c-6.3,2.9-12.9,3.9-19.8,3.4c-1.9-0.1-3.9-0.3-5.9-0.5c0.1,0.3,0.2,0.5,0.3,0.8
					c6,12.6,12,25.2,18,37.9c2.6,5.5,4.9,11.1,7.4,16.6c0.5,1.1,0.7,2.2-0.3,3.3c-0.9,1-2,1.2-3.3,0.8c-5.2-1.5-10.3-2.9-15.5-4.3
					c-1.2-0.3-2-1-2.5-2.1c-5.1-11-10.1-22-15.2-32.9c-4-8.5-8.3-16.9-12.6-25.3c-0.7-1.4-0.9-2.7-0.4-4.1c0.9-2.9,1.7-5.9,2.5-8.9
					c0.7-2.3,1.9-3,4.3-2.4c4.6,1.2,9.2,2.6,13.9,3.6c5,1.1,10.1,1.3,15.1-0.2c4-1.2,7.2-3.4,9.5-6.9c0.1-0.2,0.2-0.3,0.3-0.5
					C427.7,263.4,427.7,263.4,427.7,263.2z"/>
			</g>
		</g>
	</g>
	<g id="XMLID_600_">
		<g id="XMLID_601_">
			<path id="XMLID_602_" class="st3" d="M417.6,450.7h-23.6c-2.7,0-4.9-2.2-4.9-4.9c0-2.7,2.2-4.9,4.9-4.9h23.6
				c2.7,0,4.9,2.2,4.9,4.9C422.4,448.6,420.3,450.7,417.6,450.7z"/>
		</g>
		<g id="XMLID_603_">
			<path id="XMLID_604_" class="st3" d="M405.7,462.5c-2.7,0-4.9-2.2-4.9-4.9V434c0-2.7,2.2-4.9,4.9-4.9c2.7,0,4.9,2.2,4.9,4.9v23.6
				C410.6,460.4,408.4,462.5,405.7,462.5z"/>
		</g>
	</g>
	<g id="XMLID_605_">
		<path id="XMLID_606_" class="st4" d="M412.6,20c-1.2,0-2.5-0.5-3.4-1.4l-6.8-6.8l-6.8,6.8c-1.9,1.9-5,1.9-6.9,0
			c-1.9-1.9-1.9-5,0-6.9l10.3-10.3c1.9-1.9,5-1.9,6.9,0L416,11.7c1.9,1.9,1.9,5,0,6.9C415,19.5,413.8,20,412.6,20z"/>
	</g>
	<g id="XMLID_607_">
		<path id="XMLID_301_" class="st4" d="M111.9,67.1c-1.2,0-2.5,0.5-3.4,1.4l-6.8,6.8l-6.8-6.8c-1.9-1.9-5-1.9-6.9,0
			c-1.9,1.9-1.9,5,0,6.9l13.7,13.7l15.2-15.2c0.1-0.1,0.1-0.2,0.1-0.3C117.2,69.3,114.5,67.1,111.9,67.1z"/>
	</g>
	<g id="XMLID_608_">
		<path id="XMLID_609_" class="st0" d="M239.1,161.4c-9,0-16.3-7.3-16.3-16.3c0-9,7.3-16.3,16.3-16.3c9,0,16.3,7.3,16.3,16.3
			C255.3,154.1,248,161.4,239.1,161.4z M239.1,138.6c-3.6,0-6.6,2.9-6.6,6.6c0,3.6,2.9,6.6,6.6,6.6c3.6,0,6.6-2.9,6.6-6.6
			C245.6,141.5,242.7,138.6,239.1,138.6z"/>
	</g>
	<g id="XMLID_612_">
		<g id="XMLID_613_">
			
				<linearGradient id="XMLID_29_" gradientUnits="userSpaceOnUse" x1="-254.0477" y1="269.6223" x2="-223.9838" y2="69.1962" gradientTransform="matrix(0.9892 0.1469 -0.1469 0.9892 453.6447 153.3877)">
				<stop  offset="0" style="stop-color:#1568A1"/>
				<stop  offset="1" style="stop-color:#16A4DD"/>
			</linearGradient>
			<polygon id="XMLID_300_" class="st5" points="327.8,432.2 0.4,340.4 55.2,145.1 382.6,236.9 			"/>
			<path id="XMLID_299_" class="st6" d="M285.9,405.2L50.2,339.1c4.6-16.6-5-33.8-21.6-38.4l30-107c16.6,4.6,33.8-5,38.4-21.6
				l235.7,66.1c-4.6,16.6,5,33.8,21.6,38.4l-30,107C307.7,379,290.5,388.7,285.9,405.2z"/>
			
				<linearGradient id="XMLID_30_" gradientUnits="userSpaceOnUse" x1="-622.3399" y1="60.6359" x2="-622.3399" y2="168.4743" gradientTransform="matrix(0.9629 0.2698 -0.2698 0.9629 821.8492 345.5338)">
				<stop  offset="0" style="stop-color:#1568A1"/>
				<stop  offset="1" style="stop-color:#16A4DD"/>
			</linearGradient>
			<circle id="XMLID_298_" class="st7" cx="191.5" cy="288.7" r="55"/>
		</g>
	</g>
	<path id="XMLID_614_" class="st8" d="M347.6,139.4"/>
	<path id="XMLID_615_" class="st8" d="M347.6,165"/>
	<g id="XMLID_616_">
		<g id="XMLID_617_">
			<path id="XMLID_297_" class="st4" d="M169.1,160.7c-5.2-2-7.9-7.9-5.9-13.1c12.6-33.1,38.9-58.9,72.3-70.8
				c34.1-12.2,70.8-8.6,103.4,10c4.9,2.8,6.5,9,3.8,13.9c-2.8,4.9-9,6.6-13.9,3.8c-27.3-15.6-58-18.7-86.4-8.5
				c-27.7,9.9-49.6,31.4-60.1,58.9C180.2,160.1,174.4,162.7,169.1,160.7z"/>
		</g>
		<g id="XMLID_618_">
			<path id="XMLID_296_" class="st4" d="M309.2,116.7c-2.2-0.8-4.1-2.4-5.3-4.6c-2.7-4.9-0.9-11.1,4-13.8l13.5-7.5l-5-14.5
				c-1.8-5.3,1-11.1,6.3-12.9c5.3-1.8,11.1,1,12.9,6.3l7.8,22.5c1.6,4.7-0.4,9.8-4.7,12.2l-21,11.6
				C315,117.6,311.9,117.8,309.2,116.7z"/>
		</g>
	</g>
	<g id="XMLID_619_">
		<g id="XMLID_620_">
			
				<linearGradient id="XMLID_31_" gradientUnits="userSpaceOnUse" x1="179.1829" y1="417.6645" x2="179.1829" y2="638.1877" gradientTransform="matrix(1 -1.480297e-005 -1.480298e-005 1.0524 4.652389e-002 -164.8004)">
				<stop  offset="0" style="stop-color:#42CFB3"/>
				<stop  offset="1" style="stop-color:#16A4DD"/>
			</linearGradient>
			<path id="XMLID_295_" class="st9" d="M349,498.2L9.4,498.1c-5.2,0-9.4-4.2-9.4-9.4l0.1-206.3c0-5.2,4.2-9.4,9.4-9.4l339.6,0.1
				c5.2,0,9.4,4.2,9.4,9.4l-0.1,206.3C358.4,494,354.2,498.2,349,498.2z"/>
		</g>
		<rect id="XMLID_84_" x="0.1" y="311.1" class="st2" width="358.4" height="42.6"/>
		<path id="XMLID_71_" class="st10" d="M321.7,467h-65.3c-1.7,0-3.1-1.4-3.1-3.1v-46.7c0-1.7,1.4-3.1,3.1-3.1h65.3
			c1.7,0,3.1,1.4,3.1,3.1v46.7C324.8,465.6,323.4,467,321.7,467z"/>
	</g>
</g>
</svg>
