<?xml version="1.0" encoding="utf-8"?>
<!-- Generator: Adobe Illustrator 19.0.0, SVG Export Plug-In . SVG Version: 6.00 Build 0)  -->
<svg version="1.1" id="Layer_1" xmlns="http://www.w3.org/2000/svg" xmlns:xlink="http://www.w3.org/1999/xlink" x="0px" y="0px"
	 viewBox="0 0 552.1 497.7" style="enable-background:new 0 0 552.1 497.7;" xml:space="preserve">
<style type="text/css">
	.st0{fill:#D0E0EA;}
	.st1{fill:#16A4DD;}
	.st2{fill:#42CFB3;}
	.st3{fill:#3FCCB6;}
	.st4{fill:url(#XMLID_41_);}
	.st5{fill:url(#XMLID_43_);}
	.st6{fill:url(#XMLID_44_);}
	.st7{fill:url(#XMLID_48_);}
	.st8{fill:#FFFFFF;}
	.st9{fill:#1568A1;}
	.st10{fill:url(#XMLID_49_);}
	.st11{fill:url(#XMLID_50_);}
</style>
<g id="XMLID_42_">
	<g id="XMLID_521_">
		<g id="XMLID_346_">
			<path id="XMLID_347_" class="st0" d="M503.4,338.8V242c0-49.8-33.2-91.9-78.6-105.3h-48.5h-48.5c-45.4,13.4-78.6,55.5-78.6,105.3
				v96.8c-13.9,2.2-24.7,14.3-24.7,28.8c0,14.5,10.7,26.7,24.7,28.8v0.4h4.5h122.6h122.6h4.5v-0.4c13.9-2.2,24.7-14.3,24.7-28.8
				C528.1,353.1,517.4,341,503.4,338.8z M421.6,248.4c0,0.9-0.3,1.7-0.9,2.3c-0.6,0.6-1.4,0.9-2.3,0.9h-16.9
				c-1.5,9.7-5.9,17.5-13,23.6c-7.1,6-16.4,9.7-27.8,11.1c11.2,12,26.7,30,46.3,54c0.9,1.1,1.1,2.2,0.4,3.4
				c-0.5,1.2-1.5,1.8-2.9,1.8h-19.7c-1.1,0-1.9-0.4-2.5-1.2c-20.6-24.7-37.3-43.9-50.2-57.6c-0.6-0.6-0.9-1.3-0.9-2.2v-12.8
				c0-0.9,0.3-1.6,1-2.3c0.6-0.6,1.4-1,2.3-1h11.3c8.9,0,16-1.5,21.4-4.3c5.4-2.9,8.9-7.1,10.3-12.6h-43.1c-0.9,0-1.7-0.3-2.3-0.9
				c-0.6-0.6-0.9-1.4-0.9-2.3v-10.3c0-0.9,0.3-1.7,0.9-2.3c0.6-0.6,1.4-0.9,2.3-0.9h41.6c-3.8-7.6-12.8-11.4-27-11.4h-14.6
				c-0.9,0-1.6-0.3-2.3-1c-0.6-0.6-1-1.4-1-2.3v-13.4c0-0.9,0.3-1.7,0.9-2.3c0.6-0.6,1.4-0.9,2.3-0.9h83.9c0.9,0,1.7,0.3,2.3,0.9
				c0.6,0.6,0.9,1.4,0.9,2.3v10.3c0,0.9-0.3,1.7-0.9,2.3c-0.6,0.6-1.4,0.9-2.3,0.9h-23.5c3.2,4.1,5.3,8.9,6.5,14.5h17.2
				c0.9,0,1.7,0.3,2.3,0.9c0.6,0.6,0.9,1.4,0.9,2.3V248.4z"/>
			<path id="XMLID_526_" class="st0" d="M312.6,74.7c1.9,17.2,6.4,29.9,13.4,43.5c2,4,6.1,6.6,10.6,6.6H416c4.5,0,8.6-2.5,10.6-6.6
				c6.9-13.7,11.5-26.3,13.4-43.5l0.8-7.5c0.8-7.1-4.7-13.2-11.8-13.2h0c-3.2,0-6.3,1.3-8.5,3.6l-4.7,4.8c-4.7,4.8-12.4,4.8-17.1,0
				l-4.7-4.8c-2.2-2.3-5.3-3.6-8.5-3.6h-18.4c-3.2,0-6.3,1.3-8.5,3.6l-4.7,4.8c-4.7,4.8-12.4,4.8-17.1,0l-4.7-4.8
				c-2.2-2.3-5.3-3.6-8.5-3.6c-7.1,0-12.6,6.2-11.8,13.2L312.6,74.7z"/>
		</g>
		<g id="XMLID_527_">
			<g id="XMLID_528_">
				<path id="XMLID_529_" class="st1" d="M358.6,15.8h-17.3c-2,0-3.6-1.6-3.6-3.6s1.6-3.6,3.6-3.6h17.3c2,0,3.6,1.6,3.6,3.6
					S360.6,15.8,358.6,15.8z"/>
			</g>
			<g id="XMLID_530_">
				<path id="XMLID_531_" class="st1" d="M350,24.4c-2,0-3.6-1.6-3.6-3.6V3.6c0-2,1.6-3.6,3.6-3.6s3.6,1.6,3.6,3.6v17.3
					C353.5,22.8,351.9,24.4,350,24.4z"/>
			</g>
		</g>
		<g id="XMLID_532_">
			<g id="XMLID_533_">
				<path id="XMLID_534_" class="st2" d="M539.9,489.1h-17.3c-2,0-3.6-1.6-3.6-3.6s1.6-3.6,3.6-3.6h17.3c2,0,3.6,1.6,3.6,3.6
					S541.8,489.1,539.9,489.1z"/>
			</g>
			<g id="XMLID_535_">
				<path id="XMLID_536_" class="st2" d="M531.2,497.7c-2,0-3.6-1.6-3.6-3.6v-17.3c0-2,1.6-3.6,3.6-3.6c2,0,3.6,1.6,3.6,3.6v17.3
					C534.8,496.1,533.2,497.7,531.2,497.7z"/>
			</g>
		</g>
		<g id="XMLID_537_">
			<path id="XMLID_538_" class="st3" d="M527.6,188.2c-0.9,0-1.8-0.3-2.5-1l-5-5l-5,5c-1.4,1.4-3.6,1.4-5,0c-1.4-1.4-1.4-3.6,0-5
				l7.5-7.5c1.4-1.4,3.6-1.4,5,0l7.5,7.5c1.4,1.4,1.4,3.6,0,5C529.5,187.8,528.5,188.2,527.6,188.2z"/>
		</g>
		<g id="XMLID_539_">
			<path id="XMLID_345_" class="st0" d="M238.3,478.2c-0.9,0-1.8,0.3-2.5,1l-5,5l-5-5c-1.4-1.4-3.6-1.4-5,0c-1.4,1.4-1.4,3.6,0,5
				l10,10l11.2-11.2c0.1-0.1,0.1-0.1,0.1-0.2C242.2,479.7,240.3,478.2,238.3,478.2z"/>
		</g>
		<g id="XMLID_540_">
			<path id="XMLID_541_" class="st0" d="M88.3,312.2c-6.7,0-12.2-5.5-12.2-12.2s5.5-12.2,12.2-12.2c6.7,0,12.2,5.5,12.2,12.2
				S95,312.2,88.3,312.2z M88.3,295.1c-2.7,0-4.9,2.2-4.9,4.9c0,2.7,2.2,4.9,4.9,4.9c2.7,0,4.9-2.2,4.9-4.9
				C93.2,297.3,91,295.1,88.3,295.1z"/>
		</g>
		<g id="XMLID_655_">
			<linearGradient id="XMLID_41_" gradientUnits="userSpaceOnUse" x1="496.5242" y1="318.3817" x2="496.5242" y2="452.6378">
				<stop  offset="0" style="stop-color:#1568A1"/>
				<stop  offset="1" style="stop-color:#16A4DD"/>
			</linearGradient>
			<path id="XMLID_321_" class="st4" d="M496.5,367.8c15.7,0,28.5-12.8,28.5-28.5c0-15.7-12.8-28.5-28.5-28.5
				c-15.7,0-28.5,12.8-28.5,28.5C468,355,480.8,367.8,496.5,367.8L496.5,367.8z M496.5,367.8"/>
			<linearGradient id="XMLID_43_" gradientUnits="userSpaceOnUse" x1="496.5242" y1="321.6047" x2="496.5242" y2="443.8079">
				<stop  offset="0" style="stop-color:#1568A1"/>
				<stop  offset="1" style="stop-color:#16A4DD"/>
			</linearGradient>
			<path id="XMLID_319_" class="st5" d="M534.8,381.7C534.8,381.7,534.8,381.6,534.8,381.7c-18.2-6.9-56.9-6-76.5,0
				c-10.5,3.2-17.3,13.1-17.3,24v30c0,5.9,4.7,10.6,10.6,10.6h89.9c5.9,0,10.6-4.7,10.6-10.6v-30.1
				C552.1,394.7,545.1,385,534.8,381.7L534.8,381.7z"/>
		</g>
		<g id="XMLID_317_">
			<path id="XMLID_318_" class="st1" d="M336.6,482.4c-30.6,0-60.7-7.8-87.3-22.5c-4.3-2.4-5.8-7.8-3.4-12.1
				c2.4-4.3,7.8-5.8,12.1-3.4c23.9,13.3,51.1,20.3,78.7,20.3c28.4,0,56.4-7.5,80.9-21.5c4.2-2.4,9.7-1,12.1,3.3
				c2.4,4.2,1,9.7-3.3,12.1C399.2,474.1,368.1,482.4,336.6,482.4z"/>
		</g>
		<g id="XMLID_313_">
			<g id="XMLID_314_">
				<linearGradient id="XMLID_44_" gradientUnits="userSpaceOnUse" x1="190.4818" y1="230.8841" x2="190.4818" y2="125.3342">
					<stop  offset="0" style="stop-color:#42CFB3"/>
					<stop  offset="1" style="stop-color:#16A4DD"/>
				</linearGradient>
				<path id="XMLID_316_" class="st6" d="M309.6,168.9h-5.9v-30.2c0-2-1.6-3.6-3.6-3.6h-14.5l0,0h-43.5l0,0h-16.3v-58
					c0-2.9-3.3-4.6-5.7-3l-41.4,29.1V77.1c0-2.9-3.3-4.6-5.7-3l-41.4,29.1V77.1c0-2.9-3.3-4.6-5.7-3l-37.7,26.4
					c-2.3,1.6-3.7,4.3-3.7,7.2v61.2H71.4c-2,0-3.6,1.6-3.6,3.6v40.9c0,7.8,6.3,14,14,14h217.4c7.8,0,14-6.3,14-14v-40.9
					C313.2,170.5,311.6,168.9,309.6,168.9z"/>
				<linearGradient id="XMLID_48_" gradientUnits="userSpaceOnUse" x1="260.8578" y1="133.4591" x2="260.8578" y2="68.6131">
					<stop  offset="0" style="stop-color:#42CFB3"/>
					<stop  offset="1" style="stop-color:#16A4DD"/>
				</linearGradient>
				<path id="XMLID_315_" class="st7" d="M279.4,127.5l-5.9-87.8c-0.1-1.7-1.5-3-3.2-3h-18c-1.7,0-3.1,1.3-3.2,3l-6.8,87.8
					c-0.2,2.1,1.5,3.8,3.6,3.8h29.9C277.9,131.3,279.5,129.6,279.4,127.5z"/>
			</g>
			<path id="XMLID_559_" class="st8" d="M124,138.6h-20.9c-1.4,0-2.5,1.1-2.5,2.5V160c0,1.4,1.1,2.5,2.5,2.5H124
				c1.4,0,2.5-1.1,2.5-2.5v-18.9C126.6,139.7,125.4,138.6,124,138.6z"/>
			<path id="XMLID_560_" class="st8" d="M165.5,138.6h-20.9c-1.4,0-2.5,1.1-2.5,2.5V160c0,1.4,1.1,2.5,2.5,2.5h20.9
				c1.4,0,2.5-1.1,2.5-2.5v-18.9C168,139.7,166.9,138.6,165.5,138.6z"/>
			<path id="XMLID_561_" d="M242.2,146.7"/>
		</g>
		<g id="XMLID_312_">
			<path id="XMLID_563_" class="st9" d="M190.5,437.8c-10.8,0-19.6,8.8-19.6,19.6c0,10.8,8.8,19.6,19.6,19.6
				c10.8,0,19.6-8.8,19.6-19.6C210.1,446.6,201.3,437.8,190.5,437.8L190.5,437.8z M190.5,463.2c-3.2,0-5.8-2.6-5.8-5.8
				c0-3.2,2.6-5.8,5.8-5.8c3.2,0,5.8,2.6,5.8,5.8C196.3,460.6,193.7,463.2,190.5,463.2L190.5,463.2z M190.5,463.2"/>
			<linearGradient id="XMLID_49_" gradientUnits="userSpaceOnUse" x1="70.4205" y1="330.349" x2="70.4205" y2="454.6539">
				<stop  offset="0" style="stop-color:#1568A1"/>
				<stop  offset="1" style="stop-color:#16A4DD"/>
			</linearGradient>
			<path id="XMLID_571_" class="st10" d="M4.6,455.5h11.8c2.3,0,4.3-1.6,4.6-3.9c1.8-13.9,12.9-22.5,26.3-22.5
				c13.4,0,24.5,8.6,26.3,22.5c0.3,2.3,2.3,3.9,4.6,3.9h58c2.5,0,4.6-2.1,4.6-4.6V335.5c0-2.5-2.1-4.6-4.6-4.6H4.6
				c-2.6,0-4.6,2.1-4.6,4.6v115.4C0,453.5,2.1,455.5,4.6,455.5L4.6,455.5z M4.6,455.5"/>
			<path id="XMLID_574_" class="st9" d="M47.3,437.8c-10.8,0-19.6,8.8-19.6,19.6c0,10.8,8.8,19.6,19.6,19.6
				c10.8,0,19.6-8.8,19.6-19.6C67,446.6,58.2,437.8,47.3,437.8L47.3,437.8z M47.3,463.2c-3.2,0-5.8-2.6-5.8-5.8
				c0-3.2,2.6-5.8,5.8-5.8c3.2,0,5.8,2.6,5.8,5.8C53.1,460.6,50.5,463.2,47.3,463.2L47.3,463.2z M47.3,463.2"/>
		</g>
		<path id="XMLID_294_" class="st1" d="M157.1,248.4c-6.4,28.1-6.1,57.6,1.4,85.9c1.2,4.7,5.9,7.9,10.6,6.8c0.9-0.2,1.7-0.5,2.5-1
			c3.4-2,5.1-6,4.1-9.9c-6.8-25.6-7.1-52.3-1.4-77.7c0.5-2.2,0.2-4.5-1-6.5l0,0C169.4,238.9,158.9,240.5,157.1,248.4z"/>
	</g>
	<linearGradient id="XMLID_50_" gradientUnits="userSpaceOnUse" x1="117.3176" y1="394.774" x2="196.5546" y2="411.0002">
		<stop  offset="0" style="stop-color:#42CFB3"/>
		<stop  offset="0.5068" style="stop-color:#2AB7CA"/>
		<stop  offset="1" style="stop-color:#16A4DD"/>
	</linearGradient>
	<path id="XMLID_47_" class="st11" d="M230.9,448.8v-41.9c0-2.7-1.1-4-1.1-4l-2.9-3.5l-34.8-41.5c-1.4-1.7-3.5-1.7-3.5-1.7h-1.4
		h-32.5c-5.1,0-4.6,5.5-4.6,5.5v89.2c0,4.6,4.6,4.6,4.6,4.6h4c1.1,0,4.9,1.2,5.9-6c1-7.1,6.3-12.4,6.3-12.4
		c7.8-7.7,16.4-7.9,19.6-8.1c3.2-0.2,11.5,0.6,17.7,6.2c6.2,5.5,7.3,10.7,8.5,15.6c1.2,4.9,4.7,4.6,4.7,4.6h4.9
		C231.8,455.5,230.9,448.8,230.9,448.8z M207.7,395.2c-1.8,3.2-5.4,2.6-5.4,2.6h-37.7c0,0-2.5,0.1-4.1-1.6c-1.5-1.7-1.2-4.5-1.2-4.5
		v-21.7c0,0-0.1-2.2,1.8-3.6c1.9-1.4,5.2-1,5.2-1h18c0,0,1.9-0.3,3.8,2l18.2,21.9C206.3,389.4,209.4,392,207.7,395.2z"/>
</g>
</svg>
